<svg width="659" height="571" viewBox="0 0 659 571" fill="none" xmlns="http://www.w3.org/2000/svg">
<path d="M65.2728 528.641C59.2686 548.696 68.5871 569.199 68.5871 569.199C68.5871 569.199 87.6402 557.188 93.6444 537.134C99.6486 517.079 90.3302 496.575 90.3302 496.575C90.3302 496.575 71.2771 508.587 65.2728 528.641Z" fill="#F2F2F2"/>
<path d="M74.3892 529.184C79.4425 549.498 69.169 569.541 69.169 569.541C69.169 569.541 50.7024 556.646 45.6491 536.331C40.5958 516.016 50.8692 495.974 50.8692 495.974C50.8692 495.974 69.3358 508.869 74.3892 529.184Z" fill="#F2F2F2"/>
<path d="M374.697 549.356L378.518 539.526L342.419 520.108L336.779 534.616L374.697 549.356Z" fill="#FFB8B8"/>
<path d="M395.173 523.713C393.553 523.083 391.825 522.777 390.087 522.815C388.349 522.853 386.635 523.233 385.044 523.933C383.453 524.633 382.015 525.64 380.813 526.896C379.611 528.153 378.669 529.633 378.04 531.254L375.462 537.88L371.487 548.108L370.515 550.616L383.253 555.571L395.574 523.872L395.173 523.713Z" fill="#2F2E41"/>
<path d="M371.488 530.438L369.826 534.846L365.678 545.847L365.578 546.122C355.009 547.48 343.423 544.818 332.707 540.682C328.419 539.029 324.22 537.155 320.125 535.069C314.065 532.007 308.639 528.775 304.31 526.012C297.792 521.829 293.762 518.688 293.762 518.688C293.762 518.688 292.697 519.65 290.771 521.3C288.189 523.509 284.062 526.959 278.836 531.02C276.842 532.58 274.701 534.211 272.414 535.915C255.551 548.422 233.91 515.049 233.91 515.049C233.91 515.049 239.996 511.175 241.586 510.422C246.706 508 258.734 502.285 269.111 497.206C274.458 494.586 279.359 492.129 282.65 490.383C294.304 484.179 308.79 495.918 308.79 495.918L371.488 530.438Z" fill="#2F2E41"/>
<path opacity="0.14" d="M371.488 530.438L369.826 534.846L365.678 545.847L365.578 546.122C355.009 547.48 343.423 544.818 332.707 540.682C328.419 539.029 324.22 537.155 320.125 535.069C314.065 532.007 308.639 528.775 304.31 526.012C297.792 521.829 293.762 518.688 293.762 518.688C293.762 518.688 292.697 519.65 290.771 521.3C288.189 523.509 284.062 526.959 278.836 531.02C276.842 532.58 274.701 534.211 272.414 535.915C255.551 548.422 233.91 515.049 233.91 515.049C233.91 515.049 239.996 511.175 241.586 510.422C246.706 508 258.734 502.285 269.111 497.206C274.458 494.586 279.359 492.129 282.65 490.383C294.304 484.179 308.79 495.918 308.79 495.918L371.488 530.438Z" fill="black"/>
<path d="M157.935 296.454C239.807 296.454 306.177 230.09 306.177 148.227C306.177 66.3634 239.807 0 157.935 0C76.0635 0 9.69324 66.3634 9.69324 148.227C9.69324 230.09 76.0635 296.454 157.935 296.454Z" fill="white"/>
<path opacity="0.2" d="M48.4781 49.2229C34.6504 81.5649 32.7746 117.77 43.1859 151.367C53.5971 184.965 75.617 213.766 105.311 232.624C135.004 251.483 170.437 259.169 205.277 254.311C240.116 249.452 272.093 232.365 295.493 206.102C287.046 225.861 274.404 243.549 258.442 257.938C242.48 272.327 223.58 283.074 203.052 289.435C182.524 295.795 160.858 297.617 139.555 294.774C118.253 291.931 97.8235 284.491 79.6823 272.969C61.5411 261.448 46.122 246.121 34.4932 228.049C22.8644 209.978 15.304 189.594 12.3358 168.311C9.36757 147.028 11.0626 125.354 17.3033 104.791C23.544 84.2279 34.1813 65.2673 48.4781 49.2229Z" fill="black"/>
<path d="M158.342 148.226H158.75L166.081 568.474H150.605L158.342 148.226Z" fill="#3F3D56"/>
<path d="M135.522 338.819L132.107 345.305L156.612 358.205L160.027 351.719L135.522 338.819Z" fill="#3F3D56"/>
<path d="M658.14 570.147H0.860313C0.632144 570.147 0.413319 570.056 0.251979 569.895C0.0906392 569.733 0 569.514 0 569.286C0 569.058 0.0906392 568.839 0.251979 568.678C0.413319 568.517 0.632144 568.426 0.860313 568.426H658.14C658.368 568.426 658.587 568.517 658.748 568.678C658.909 568.839 659 569.058 659 569.286C659 569.514 658.909 569.733 658.748 569.895C658.587 570.056 658.368 570.147 658.14 570.147Z" fill="#3F3D56"/>
<path d="M202.815 437.92H152.917C151.891 437.919 150.907 437.511 150.181 436.785C149.455 436.059 149.047 435.076 149.046 434.049V412.544C149.046 404.901 152.082 397.571 157.487 392.167C162.892 386.762 170.223 383.726 177.866 383.726C185.51 383.726 192.841 386.762 198.246 392.167C203.65 397.571 206.687 404.901 206.687 412.544V434.049C206.686 435.076 206.277 436.059 205.552 436.785C204.826 437.511 203.842 437.919 202.815 437.92Z" fill="#2F2E41"/>
<path d="M250.268 464.933C249.107 465.137 248.004 465.593 247.038 466.269C246.071 466.945 245.265 467.825 244.676 468.847C244.087 469.868 243.728 471.006 243.626 472.181C243.525 473.356 243.682 474.539 244.086 475.646L230.518 488.125L236.091 498.219L255.004 480.328C256.82 479.525 258.278 478.083 259.102 476.277C259.926 474.47 260.059 472.425 259.475 470.527C258.891 468.629 257.632 467.012 255.935 465.981C254.238 464.95 252.222 464.577 250.268 464.933Z" fill="#FFB8B8"/>
<path d="M209.442 521.666C208.829 521.666 208.215 521.64 207.6 521.587C203.94 521.281 200.417 520.051 197.363 518.012C194.308 515.972 191.822 513.19 190.138 509.926L168.4 468.091C166.976 465.35 166.663 462.165 167.527 459.199C168.391 456.233 170.366 453.715 173.04 452.167C175.714 450.62 178.881 450.163 181.884 450.891C184.886 451.62 187.492 453.478 189.159 456.078L209.214 501.071L236.502 478.901L252.303 485.051L225.619 514.507C223.568 516.759 221.07 518.558 218.285 519.791C215.499 521.023 212.487 521.662 209.442 521.666Z" fill="#CCCCCC"/>
<path d="M289.851 457.025L265.675 432.851C264.829 432.005 263.682 431.53 262.486 431.53C261.29 431.53 260.143 432.005 259.297 432.851L237.549 454.597C236.703 455.443 236.228 456.59 236.228 457.786C236.228 458.982 236.703 460.129 237.549 460.974L260.137 483.561C260.943 484.366 262.024 484.837 263.162 484.878C264.3 484.92 265.412 484.529 266.274 483.784L289.611 463.625C290.059 463.238 290.426 462.767 290.692 462.237C290.958 461.708 291.117 461.132 291.16 460.541C291.203 459.951 291.13 459.358 290.943 458.795C290.757 458.233 290.462 457.713 290.075 457.265C290.003 457.182 289.929 457.102 289.851 457.025Z" fill="#3F3D56"/>
<path d="M286.428 461.264L261.543 436.382L241.006 456.916L264.926 480.832L286.428 461.264Z" fill="#F2F2F2"/>
<path d="M263.307 468.506C268.888 468.506 273.413 463.982 273.413 458.401C273.413 452.821 268.888 448.297 263.307 448.297C257.726 448.297 253.202 452.821 253.202 458.401C253.202 463.982 257.726 468.506 263.307 468.506Z" fill="white"/>
<path opacity="0.1" d="M267.805 467.014C269.496 465.425 270.588 463.304 270.899 461.006C271.21 458.707 270.721 456.372 269.514 454.391C268.307 452.411 266.455 450.906 264.269 450.129C262.084 449.352 259.697 449.351 257.511 450.126C258.692 449.299 260.037 448.734 261.454 448.469C262.872 448.205 264.33 448.247 265.73 448.593C267.13 448.938 268.44 449.58 269.571 450.474C270.703 451.367 271.63 452.493 272.29 453.775C272.951 455.057 273.329 456.465 273.4 457.905C273.471 459.345 273.233 460.784 272.701 462.125C272.17 463.465 271.358 464.676 270.32 465.677C269.281 466.678 268.041 467.444 266.682 467.926C267.077 467.649 267.453 467.344 267.805 467.014Z" fill="black"/>
<path d="M258.339 456.394C257.134 457.526 257.07 461.602 258.91 463.56C260.75 465.518 263.797 464.617 265.002 463.485C266.207 462.352 265.114 461.418 263.274 459.459C261.434 457.501 259.544 455.261 258.339 456.394Z" fill="#F2F2F2"/>
<path d="M268.598 461.56C270.251 461.56 271.592 460.22 271.592 458.566C271.592 456.913 270.251 455.572 268.598 455.572C266.944 455.572 265.604 456.913 265.604 458.566C265.604 460.22 266.944 461.56 268.598 461.56Z" fill="#2F2E41"/>
<path d="M263.216 455.833C264.869 455.833 266.21 454.492 266.21 452.839C266.21 451.185 264.869 449.845 263.216 449.845C261.562 449.845 260.222 451.185 260.222 452.839C260.222 454.492 261.562 455.833 263.216 455.833Z" fill="#2F2E41"/>
<path d="M268.598 459.315C269.011 459.315 269.346 458.98 269.346 458.566C269.346 458.153 269.011 457.818 268.598 457.818C268.184 457.818 267.849 458.153 267.849 458.566C267.849 458.98 268.184 459.315 268.598 459.315Z" fill="#F2F2F2"/>
<path d="M268.92 457.097C269.127 457.097 269.294 456.93 269.294 456.723C269.294 456.516 269.127 456.349 268.92 456.349C268.713 456.349 268.546 456.516 268.546 456.723C268.546 456.93 268.713 457.097 268.92 457.097Z" fill="#F2F2F2"/>
<path d="M263.538 451.37C263.745 451.37 263.912 451.202 263.912 450.996C263.912 450.789 263.745 450.622 263.538 450.622C263.331 450.622 263.164 450.789 263.164 450.996C263.164 451.202 263.331 451.37 263.538 451.37Z" fill="#F2F2F2"/>
<path d="M263.216 453.587C263.629 453.587 263.964 453.252 263.964 452.839C263.964 452.426 263.629 452.09 263.216 452.09C262.802 452.09 262.467 452.426 262.467 452.839C262.467 453.252 262.802 453.587 263.216 453.587Z" fill="#F2F2F2"/>
<path d="M371.647 563.181L376.212 553.674L341.713 531.541L334.974 545.572L371.647 563.181Z" fill="#FFB8B8"/>
<path d="M394.034 539.187C392.467 538.434 390.767 537.997 389.031 537.901C387.295 537.805 385.558 538.052 383.917 538.628C382.277 539.204 380.766 540.098 379.472 541.258C378.177 542.418 377.124 543.822 376.372 545.389L373.292 551.798L368.543 561.691L367.382 564.116L379.701 570.035L394.421 539.376L394.034 539.187Z" fill="#2F2E41"/>
<path d="M369.902 544.073L367.906 548.34L362.925 558.989L362.805 559.256C352.163 559.798 340.815 556.254 330.448 551.308C326.3 549.329 322.257 547.139 318.335 544.744C312.528 541.226 307.366 537.587 303.262 534.499C297.085 529.828 293.308 526.387 293.308 526.387C293.308 526.387 292.173 527.264 290.125 528.761C287.381 530.765 283.002 533.888 277.479 537.535C275.371 538.938 273.111 540.4 270.7 541.922C252.925 553.097 227.649 566.706 206.15 569.579C168.391 574.628 177.278 524.245 177.278 524.245L207.329 508.64L220.087 511.23L234.291 514.103L239.324 515.127C239.324 515.127 240.279 514.765 241.922 514.137C247.213 512.116 259.644 507.341 270.381 503.075C275.913 500.873 280.989 498.799 284.404 497.311C296.5 492.021 310.042 504.838 310.042 504.838L369.902 544.073Z" fill="#2F2E41"/>
<path d="M122.289 570.782C123.439 570.518 124.516 570.005 125.446 569.28C126.376 568.555 127.136 567.635 127.671 566.584C128.207 565.534 128.506 564.378 128.547 563.2C128.588 562.021 128.37 560.848 127.909 559.763L140.814 546.6L134.726 536.807L116.763 555.652C114.991 556.548 113.61 558.063 112.88 559.91C112.151 561.756 112.124 563.806 112.805 565.671C113.486 567.536 114.828 569.086 116.576 570.028C118.324 570.97 120.357 571.238 122.289 570.782L122.289 570.782Z" fill="#FFB8B8"/>
<path d="M184.931 438.88C196.043 438.88 205.051 429.874 205.051 418.763C205.051 407.652 196.043 398.646 184.931 398.646C173.819 398.646 164.812 407.652 164.812 418.763C164.812 429.874 173.819 438.88 184.931 438.88Z" fill="#FFB8B8"/>
<path d="M158.756 474.606L176.283 524.29L176.177 524.463C173.74 528.493 172.943 531.743 173.874 533.862C174.119 534.401 174.478 534.881 174.926 535.267C175.375 535.654 175.901 535.939 176.471 536.102L217.945 507.116L216.493 495.498L216.574 495.368C220.583 488.955 221.881 483.147 220.432 478.106C218.553 471.565 212.582 468.595 212.522 468.566L212.377 468.452L191.691 443.277L164.039 448.189L158.756 474.606Z" fill="#CCCCCC"/>
<path d="M132.104 561.812L120.363 547.363L148.667 500.645L161.863 459.859L162.272 459.991L161.863 459.859C162.583 457.631 163.774 455.583 165.353 453.854C166.932 452.125 168.864 450.754 171.018 449.834C173.172 448.915 175.498 448.467 177.839 448.523C180.18 448.578 182.483 449.134 184.591 450.154C186.699 451.174 188.564 452.635 190.06 454.436C191.556 456.238 192.649 458.34 193.264 460.599C193.879 462.859 194.002 465.224 193.626 467.535C193.25 469.847 192.382 472.05 191.082 473.998L166.856 510.29L132.104 561.812Z" fill="#CCCCCC"/>
<path d="M213.505 414.694H182.994L182.681 410.314L181.116 414.694H176.418L175.798 406.013L172.698 414.694H163.607V414.264C163.614 408.22 166.018 402.426 170.292 398.152C174.566 393.879 180.361 391.475 186.405 391.468H190.707C196.751 391.475 202.546 393.879 206.82 398.152C211.094 402.426 213.498 408.22 213.505 414.264V414.694Z" fill="#2F2E41"/>
<path d="M182.744 441.935C182.514 441.934 182.285 441.914 182.059 441.874L159.717 437.933V401.012H184.311L183.702 401.722C175.23 411.601 181.613 427.62 186.171 436.289C186.507 436.924 186.657 437.641 186.603 438.358C186.55 439.074 186.295 439.761 185.868 440.339C185.511 440.833 185.041 441.235 184.498 441.512C183.955 441.79 183.354 441.935 182.744 441.935Z" fill="#2F2E41"/>
<path d="M505.984 377.372C560.15 377.372 604.06 333.466 604.06 279.306C604.06 225.146 560.15 181.24 505.984 181.24C451.818 181.24 407.908 225.146 407.908 279.306C407.908 333.466 451.818 377.372 505.984 377.372Z" fill="#3F3D56"/>
<path d="M480.908 241.188V324.622C480.887 325.009 480.97 325.394 481.15 325.737C481.329 326.08 481.598 326.368 481.928 326.571C482.257 326.773 482.635 326.884 483.023 326.889C483.41 326.895 483.791 326.796 484.126 326.602L550.27 284.885C550.594 284.669 550.859 284.377 551.042 284.034C551.226 283.691 551.322 283.308 551.322 282.919C551.322 282.53 551.226 282.147 551.042 281.804C550.859 281.461 550.594 281.169 550.27 280.953L484.126 239.236C483.794 239.037 483.414 238.932 483.027 238.934C482.639 238.935 482.26 239.041 481.929 239.242C481.598 239.443 481.328 239.731 481.148 240.073C480.968 240.416 480.885 240.802 480.908 241.188Z" fill="#F2F2F2"/>
</svg>
