<svg width="512" height="497" viewBox="0 0 512 497" fill="none" xmlns="http://www.w3.org/2000/svg">
<g clip-path="url(#clip0_52_132)">
<path d="M359.314 495.323C358.778 495.886 358.221 496.443 357.658 497H293.363C292.835 496.457 292.313 495.901 291.792 495.323C291.771 495.301 291.749 495.273 291.728 495.252C284.743 487.513 280.346 476.264 277.604 464.401C277.428 463.682 277.273 462.956 277.117 462.223C276.399 458.889 275.813 455.52 275.334 452.179C275.25 451.601 275.165 451.023 275.095 450.445C274.446 445.645 274.009 440.923 273.727 436.489C273.692 435.918 273.657 435.361 273.622 434.805C273.105 425.978 273.1 417.129 273.607 408.302C273.607 408.302 273.692 408.302 273.854 408.31C274.326 408.331 275.461 408.38 277.132 408.479C281.734 408.761 290.418 409.465 300.63 411.129C301.187 411.221 301.751 411.319 302.315 411.418C310.953 412.845 319.474 414.909 327.808 417.592C328.33 417.769 328.845 417.945 329.366 418.121L329.373 418.156L335.766 450.234L338.416 421.68C340.523 422.632 342.575 423.647 344.541 424.732C345.091 425.035 345.626 425.339 346.155 425.649C350.651 428.196 354.732 431.414 358.257 435.192C379.225 458.431 374.736 479.203 359.314 495.323Z" fill="#F2F2F2"/>
<path d="M332.446 454.647L333.561 455.882C346.444 470.302 354.133 483.687 356.502 495.86C356.54 496.037 356.566 496.214 356.603 496.39L355.779 496.546L354.984 496.687C352.567 483.414 343.566 469.694 332.331 457.114C331.973 456.705 331.61 456.29 331.234 455.886C326.431 450.602 321.268 445.533 316.046 440.794C315.645 440.424 315.233 440.053 314.82 439.682C307.896 433.462 300.931 427.835 294.718 423.091C294.281 422.754 293.837 422.422 293.399 422.097C282.851 414.111 274.667 408.818 272.843 407.658C272.623 407.512 272.498 407.436 272.47 407.417L272.902 406.728L272.903 406.716L273.34 406.021C273.369 406.04 273.787 406.295 274.543 406.788C277.382 408.619 285.014 413.656 294.508 420.818C294.934 421.143 295.378 421.475 295.816 421.812C300.861 425.656 306.379 430.061 311.952 434.882C313.354 436.091 314.721 437.298 316.053 438.503C316.471 438.868 316.884 439.239 317.285 439.61C322.93 444.732 327.983 449.745 332.446 454.647Z" fill="white"/>
<path d="M301.237 409.761C301.046 410.22 300.842 410.678 300.63 411.129C299.02 414.613 296.961 417.871 294.505 420.82C294.146 421.243 293.78 421.673 293.399 422.096C292.37 423.231 291.275 424.328 290.114 425.388C285.366 429.687 279.738 432.9 273.622 434.805C273.424 434.868 273.234 434.931 273.036 434.988C273.072 435.545 273.107 436.094 273.142 436.665C273.34 436.609 273.53 436.553 273.727 436.489C280.217 434.533 286.19 431.157 291.214 426.607C292.443 425.497 293.612 424.323 294.717 423.09C295.097 422.674 295.464 422.244 295.817 421.814C298.443 418.659 300.629 415.161 302.315 411.418C302.512 410.967 302.71 410.516 302.9 410.057C302.336 409.959 301.779 409.86 301.237 409.761Z" fill="white"/>
<path d="M328.097 416.345C328.013 416.761 327.914 417.176 327.808 417.592C325.898 425.516 321.828 432.755 316.052 438.505C315.65 438.907 315.241 439.302 314.819 439.682C314.699 439.802 314.565 439.929 314.438 440.042C309.184 444.785 302.871 448.204 296.028 450.014C289.184 451.824 282.007 451.971 275.095 450.445C274.933 450.417 274.764 450.375 274.601 450.339C274.686 450.917 274.764 451.502 274.855 452.08C275.017 452.116 275.172 452.151 275.334 452.179C282.422 453.645 289.756 453.421 296.741 451.524C303.725 449.627 310.165 446.111 315.537 441.261C315.707 441.106 315.883 440.958 316.045 440.796C316.468 440.401 316.877 440.006 317.286 439.612C323.197 433.696 327.377 426.277 329.373 418.156C329.479 417.733 329.578 417.31 329.669 416.887C329.147 416.704 328.626 416.521 328.097 416.345Z" fill="white"/>
<path d="M344.541 423.541C344.548 423.936 344.548 424.337 344.541 424.732C344.423 435.871 340.104 446.555 332.446 454.646C332.051 455.069 331.643 455.478 331.234 455.886C330.79 456.316 330.346 456.746 329.888 457.155C322.797 463.546 313.841 467.488 304.339 468.4C294.838 469.313 285.294 467.147 277.117 462.223C276.977 462.15 276.841 462.07 276.709 461.983C276.878 462.73 277.047 463.463 277.23 464.196C277.357 464.267 277.477 464.337 277.604 464.401C286.018 469.092 295.688 471.035 305.261 469.955C314.834 468.876 323.829 464.829 330.987 458.381C331.445 457.966 331.903 457.55 332.333 457.113C332.756 456.711 333.158 456.302 333.56 455.879C341.325 447.689 345.808 436.93 346.155 425.648C346.169 425.268 346.176 424.887 346.176 424.507C345.641 424.175 345.091 423.858 344.541 423.541Z" fill="white"/>
<path d="M202.05 116.707H78.1522C77.1211 116.706 76.1326 116.296 75.4035 115.567C74.6745 114.837 74.2644 113.849 74.2632 112.818V18.7387C74.2644 17.7076 74.6744 16.7191 75.4035 15.9899C76.1326 15.2608 77.1211 14.8506 78.1522 14.8494H230.231C231.262 14.8506 232.25 15.2608 232.979 15.9899C233.708 16.7191 234.118 17.7076 234.12 18.7387V84.6365C234.11 93.1392 230.728 101.291 224.716 107.303C218.704 113.315 210.552 116.697 202.05 116.707Z" fill="white"/>
<path d="M202.05 117.059H78.1522C77.0277 117.058 75.9497 116.611 75.1546 115.815C74.3594 115.02 73.9122 113.942 73.9108 112.818V18.7386C73.9121 17.6141 74.3593 16.5359 75.1544 15.7407C75.9496 14.9455 77.0276 14.4982 78.1522 14.4968H230.231C231.355 14.4981 232.433 14.9454 233.228 15.7407C234.024 16.5359 234.471 17.6141 234.472 18.7386V84.6364C234.462 93.2325 231.043 101.474 224.965 107.552C218.887 113.63 210.646 117.049 202.05 117.059ZM78.1522 15.9065C77.4014 15.9074 76.6816 16.2061 76.1507 16.7371C75.6199 17.268 75.3213 17.9878 75.3205 18.7386V112.818C75.3213 113.569 75.6199 114.288 76.1508 114.819C76.6816 115.35 77.4014 115.649 78.1522 115.65H202.05C210.272 115.64 218.155 112.37 223.969 106.556C229.783 100.742 233.053 92.8587 233.062 84.6364V18.7386C233.061 17.9878 232.763 17.268 232.232 16.7371C231.701 16.2061 230.981 15.9074 230.231 15.9065H78.1522Z" fill="#CCCCCC"/>
<path d="M200.169 46.6216H108.214C107.37 46.6216 106.56 46.2863 105.963 45.6893C105.367 45.0924 105.031 44.2827 105.031 43.4385C105.031 42.5943 105.367 41.7846 105.963 41.1877C106.56 40.5907 107.37 40.2554 108.214 40.2554H200.169C201.012 40.2566 201.82 40.5925 202.416 41.1894C203.012 41.7862 203.347 42.5951 203.347 43.4385C203.347 44.2819 203.012 45.0908 202.416 45.6876C201.82 46.2845 201.012 46.6204 200.169 46.6216Z" fill="#CCCCCC"/>
<path d="M200.169 68.5498H108.214C107.37 68.5498 106.56 68.2145 105.963 67.6175C105.367 67.0206 105.031 66.2109 105.031 65.3667C105.031 64.5225 105.367 63.7129 105.963 63.1159C106.56 62.519 107.37 62.1836 108.214 62.1836H200.169C201.013 62.1836 201.822 62.519 202.419 63.1159C203.016 63.7129 203.352 64.5225 203.352 65.3667C203.352 66.2109 203.016 67.0206 202.419 67.6175C201.822 68.2145 201.013 68.5498 200.169 68.5498Z" fill="#CCCCCC"/>
<path d="M200.169 91.1048H108.214C107.37 91.1048 106.56 90.7694 105.963 90.1725C105.367 89.5755 105.031 88.7659 105.031 87.9216C105.031 87.0774 105.367 86.2678 105.963 85.6708C106.56 85.0739 107.37 84.7385 108.214 84.7385H200.169C201.013 84.7385 201.822 85.0739 202.419 85.6708C203.016 86.2678 203.352 87.0774 203.352 87.9216C203.352 88.7659 203.016 89.5755 202.419 90.1725C201.822 90.7694 201.013 91.1048 200.169 91.1048Z" fill="#CCCCCC"/>
<path d="M229.089 38.0172C239.587 38.0172 248.097 29.5068 248.097 19.0086C248.097 8.51044 239.587 0 229.089 0C218.591 0 210.081 8.51044 210.081 19.0086C210.081 29.5068 218.591 38.0172 229.089 38.0172Z" fill="white"/>
<path d="M226.496 28.9018C226.168 28.9018 225.844 28.8253 225.55 28.6785C225.257 28.5317 225.001 28.3185 224.804 28.0558L219.619 21.1413C219.452 20.9191 219.331 20.6663 219.262 20.3974C219.193 20.1284 219.178 19.8485 219.217 19.5736C219.256 19.2987 219.349 19.0343 219.491 18.7953C219.632 18.5564 219.82 18.3477 220.042 18.1811C220.264 18.0145 220.517 17.8933 220.786 17.8244C221.055 17.7555 221.334 17.7403 221.609 17.7795C221.884 17.8188 222.149 17.9119 222.388 18.0533C222.626 18.1948 222.835 18.382 223.002 18.6041L226.394 23.1274L235.108 10.0568C235.419 9.59021 235.903 9.26629 236.453 9.1563C237.003 9.04632 237.574 9.15929 238.04 9.47037C238.507 9.78144 238.831 10.2651 238.941 10.815C239.051 11.3649 238.938 11.936 238.627 12.4026L228.255 27.9601C228.068 28.2415 227.815 28.4738 227.519 28.6375C227.224 28.8012 226.893 28.8916 226.555 28.9011C226.535 28.9015 226.515 28.9018 226.496 28.9018Z" fill="white"/>
<path d="M156.32 198.419H32.4219C23.9195 198.409 15.7681 195.027 9.75595 189.015C3.74383 183.003 0.362009 174.851 0.352417 166.349V100.45C0.353628 99.4193 0.763779 98.4307 1.49289 97.7015C2.22201 96.9724 3.21056 96.5622 4.24168 96.561H156.32C157.351 96.5622 158.339 96.9724 159.069 97.7015C159.798 98.4307 160.208 99.4193 160.209 100.45V194.53C160.208 195.561 159.798 196.549 159.069 197.278C158.339 198.008 157.351 198.418 156.32 198.419Z" fill="white"/>
<path d="M156.32 198.771H32.4219C23.8261 198.761 15.5851 195.342 9.50695 189.264C3.42878 183.186 0.00977321 174.944 0 166.348V100.45C0.00127412 99.3257 0.448575 98.2475 1.24377 97.4523C2.03896 96.6571 3.11711 96.2098 4.24168 96.2085H156.32C157.444 96.2098 158.523 96.6571 159.318 97.4523C160.113 98.2475 160.56 99.3257 160.561 100.45V194.529C160.56 195.654 160.113 196.732 159.318 197.527C158.523 198.323 157.444 198.77 156.32 198.771ZM4.24168 97.6182C3.49085 97.6191 2.77104 97.9178 2.24013 98.4487C1.70922 98.9796 1.41055 99.6995 1.40965 100.45V166.348C1.41893 174.571 4.68927 182.454 10.5032 188.268C16.3171 194.082 24.1998 197.352 32.4219 197.362H156.32C157.071 197.361 157.79 197.062 158.321 196.531C158.852 196 159.151 195.28 159.152 194.529V100.45C159.151 99.6995 158.852 98.9796 158.321 98.4487C157.79 97.9178 157.071 97.6191 156.32 97.6182H4.24168Z" fill="#CCCCCC"/>
<path d="M126.258 128.333H34.3035C33.4593 128.333 32.6497 127.998 32.0528 127.401C31.4558 126.804 31.1205 125.994 31.1205 125.15C31.1205 124.306 31.4558 123.496 32.0528 122.899C32.6497 122.302 33.4593 121.967 34.3035 121.967H126.258C127.102 121.967 127.912 122.302 128.509 122.899C129.106 123.496 129.441 124.306 129.441 125.15C129.441 125.994 129.106 126.804 128.509 127.401C127.912 127.998 127.102 128.333 126.258 128.333Z" fill="#CCCCCC"/>
<path d="M126.258 150.262H34.3035C33.4593 150.262 32.6497 149.926 32.0528 149.329C31.4558 148.732 31.1205 147.923 31.1205 147.078C31.1205 146.234 31.4558 145.425 32.0528 144.828C32.6497 144.231 33.4593 143.895 34.3035 143.895H126.258C127.102 143.895 127.912 144.231 128.509 144.828C129.106 145.425 129.441 146.234 129.441 147.078C129.441 147.923 129.106 148.732 128.509 149.329C127.912 149.926 127.102 150.262 126.258 150.262Z" fill="#CCCCCC"/>
<path d="M126.258 172.816H34.3035C33.4593 172.816 32.6497 172.481 32.0528 171.884C31.4558 171.287 31.1205 170.478 31.1205 169.633C31.1205 168.789 31.4558 167.979 32.0528 167.383C32.6497 166.786 33.4593 166.45 34.3035 166.45H126.258C127.102 166.45 127.912 166.786 128.509 167.383C129.106 167.979 129.441 168.789 129.441 169.633C129.441 170.478 129.106 171.287 128.509 171.884C127.912 172.481 127.102 172.816 126.258 172.816Z" fill="#CCCCCC"/>
<path d="M156.492 120.484C166.99 120.484 175.5 111.974 175.5 101.475C175.5 90.9772 166.99 82.4668 156.492 82.4668C145.994 82.4668 137.484 90.9772 137.484 101.475C137.484 111.974 145.994 120.484 156.492 120.484Z" fill="white"/>
<path d="M153.899 111.369C153.571 111.369 153.247 111.292 152.953 111.145C152.66 110.998 152.404 110.785 152.208 110.523L147.022 103.608C146.855 103.386 146.734 103.133 146.665 102.864C146.596 102.595 146.581 102.315 146.62 102.04C146.66 101.766 146.753 101.501 146.894 101.262C147.036 101.023 147.223 100.815 147.445 100.648C147.667 100.481 147.92 100.36 148.189 100.291C148.458 100.222 148.738 100.207 149.012 100.246C149.287 100.286 149.552 100.379 149.791 100.52C150.03 100.662 150.238 100.849 150.405 101.071L153.798 105.594L162.511 92.5236C162.822 92.057 163.306 91.7331 163.856 91.6231C164.406 91.5131 164.977 91.6261 165.443 91.9372C165.91 92.2482 166.234 92.7319 166.344 93.2818C166.454 93.8318 166.341 94.4028 166.03 94.8694L155.658 110.427C155.471 110.708 155.218 110.941 154.923 111.104C154.627 111.268 154.296 111.358 153.958 111.368C153.938 111.368 153.919 111.369 153.899 111.369Z" fill="white"/>
<path d="M310.693 286.111H137.332C128.83 286.101 120.678 282.719 114.666 276.707C108.654 270.695 105.272 262.543 105.263 254.04V157.114C105.264 155.785 105.793 154.511 106.733 153.571C107.673 152.631 108.947 152.103 110.276 152.101H310.693C312.023 152.103 313.297 152.631 314.236 153.571C315.176 154.511 315.705 155.785 315.706 157.114V281.097C315.705 282.426 315.176 283.7 314.237 284.64C313.297 285.58 312.023 286.109 310.693 286.111Z" fill="white"/>
<path d="M310.693 286.463H137.332C128.736 286.453 120.495 283.034 114.417 276.956C108.339 270.878 104.92 262.636 104.91 254.04V157.115C104.912 155.692 105.478 154.328 106.484 153.322C107.49 152.316 108.853 151.75 110.276 151.749H310.693C312.116 151.75 313.48 152.316 314.486 153.322C315.491 154.328 316.057 155.692 316.059 157.115V281.097C316.057 282.52 315.492 283.884 314.486 284.89C313.48 285.896 312.116 286.461 310.693 286.463ZM110.276 153.158C109.227 153.16 108.222 153.577 107.48 154.319C106.738 155.06 106.321 156.066 106.32 157.115V254.04C106.329 262.263 109.6 270.146 115.414 275.96C121.227 281.774 129.11 285.044 137.332 285.053H310.693C311.742 285.052 312.748 284.635 313.489 283.893C314.231 283.151 314.648 282.146 314.649 281.097V157.115C314.648 156.066 314.231 155.06 313.489 154.319C312.748 153.577 311.742 153.16 310.693 153.158H110.276Z" fill="#CCCCCC"/>
<path d="M271.076 193.86H149.893C149.342 193.861 148.796 193.753 148.286 193.543C147.777 193.332 147.314 193.023 146.924 192.634C146.534 192.244 146.224 191.781 146.013 191.272C145.802 190.763 145.693 190.217 145.693 189.665C145.693 189.114 145.802 188.568 146.013 188.059C146.224 187.549 146.534 187.087 146.924 186.697C147.314 186.308 147.777 185.999 148.286 185.788C148.796 185.578 149.342 185.47 149.893 185.47H271.076C271.627 185.47 272.173 185.578 272.683 185.788C273.192 185.999 273.655 186.308 274.046 186.697C274.436 187.087 274.745 187.549 274.956 188.059C275.167 188.568 275.276 189.114 275.276 189.665C275.276 190.217 275.167 190.763 274.956 191.272C274.745 191.781 274.436 192.244 274.046 192.634C273.655 193.023 273.192 193.332 272.683 193.543C272.173 193.753 271.627 193.861 271.076 193.86Z" fill="#CCCCCC"/>
<path d="M271.076 222.758H149.893C149.342 222.759 148.796 222.651 148.286 222.441C147.777 222.23 147.314 221.921 146.924 221.532C146.534 221.142 146.224 220.679 146.013 220.17C145.802 219.661 145.693 219.115 145.693 218.564C145.693 218.012 145.802 217.466 146.013 216.957C146.224 216.448 146.534 215.985 146.924 215.595C147.314 215.206 147.777 214.897 148.286 214.686C148.796 214.476 149.342 214.368 149.893 214.369H271.076C272.188 214.369 273.255 214.811 274.042 215.597C274.829 216.384 275.271 217.451 275.271 218.564C275.271 219.676 274.829 220.743 274.042 221.53C273.255 222.317 272.188 222.758 271.076 222.758Z" fill="#CCCCCC"/>
<path d="M271.076 252.483H149.893C148.781 252.483 147.714 252.041 146.927 251.254C146.14 250.467 145.699 249.4 145.699 248.288C145.699 247.175 146.14 246.108 146.927 245.321C147.714 244.535 148.781 244.093 149.893 244.093H271.076C271.627 244.092 272.173 244.2 272.683 244.411C273.192 244.621 273.655 244.93 274.046 245.32C274.436 245.709 274.745 246.172 274.956 246.681C275.167 247.19 275.276 247.736 275.276 248.288C275.276 248.839 275.167 249.385 274.956 249.894C274.745 250.404 274.436 250.866 274.046 251.256C273.655 251.645 273.192 251.954 272.683 252.165C272.173 252.375 271.627 252.483 271.076 252.483Z" fill="#CCCCCC"/>
<path d="M311.323 183.752C324.612 183.752 335.385 172.978 335.385 159.689C335.385 146.4 324.612 135.626 311.323 135.626C298.034 135.626 287.261 146.4 287.261 159.689C287.261 172.978 298.034 183.752 311.323 183.752Z" fill="white"/>
<path d="M308.04 172.213C307.625 172.213 307.215 172.116 306.844 171.93C306.472 171.744 306.149 171.474 305.899 171.142L299.335 162.389C299.124 162.107 298.971 161.787 298.883 161.447C298.796 161.106 298.777 160.752 298.827 160.404C298.876 160.056 298.994 159.721 299.173 159.419C299.352 159.117 299.589 158.852 299.87 158.641C300.152 158.431 300.472 158.277 300.812 158.19C301.153 158.103 301.507 158.083 301.855 158.133C302.203 158.183 302.538 158.301 302.84 158.48C303.142 158.659 303.407 158.896 303.618 159.177L307.912 164.903L318.943 148.357C319.337 147.767 319.949 147.358 320.644 147.22C321.34 147.081 322.062 147.224 322.652 147.618C323.243 148.011 323.652 148.623 323.792 149.318C323.932 150.013 323.789 150.736 323.397 151.327L310.268 171.02C310.03 171.377 309.711 171.671 309.336 171.878C308.962 172.085 308.543 172.2 308.115 172.212C308.09 172.212 308.065 172.213 308.04 172.213Z" fill="white"/>
<path d="M373.659 477.79L363.869 481.064L346.582 444.861L361.031 440.029L373.659 477.79Z" fill="#FFB6B6"/>
<path d="M379.329 486.444L347.764 494.887L347.63 494.488C346.533 491.206 346.779 489.807 348.323 486.71C349.079 485.185 350.129 483.825 351.414 482.709C352.698 481.592 354.191 480.742 355.807 480.206L355.808 480.206L360.11 473.903L372.331 474.68L375.087 473.758L379.329 486.444Z" fill="#2F2E41"/>
<path d="M397.846 486.994H387.523L382.612 447.178L397.848 447.178L397.846 486.994Z" fill="#FFB6B6"/>
<path d="M400.478 494.887L367.194 494.885V494.464C367.194 491.004 368.542 489.865 370.989 487.418C372.189 486.211 373.617 485.255 375.189 484.603C376.761 483.952 378.447 483.619 380.149 483.624H380.15L386.23 479.011L397.573 483.624L400.479 483.624L400.478 494.887Z" fill="#2F2E41"/>
<path d="M319.285 167.976C319.497 169.057 319.944 170.079 320.594 170.969C321.245 171.859 322.082 172.595 323.048 173.127C324.013 173.658 325.084 173.971 326.183 174.044C327.283 174.117 328.385 173.948 329.413 173.549L341.33 185.991L350.657 180.593L333.581 163.259C332.796 161.577 331.421 160.242 329.718 159.507C328.014 158.771 326.1 158.686 324.338 159.267C322.576 159.849 321.088 161.056 320.157 162.661C319.225 164.266 318.915 166.157 319.285 167.976Z" fill="#FFB6B6"/>
<path d="M396.408 230.535L401.78 224.976L370.713 196.203L339.444 168.282L330.784 180.52L363.551 211.106L396.408 230.535Z" fill="#E4E4E4"/>
<path d="M377.319 419.364C377.319 412.378 377.457 407.396 377.568 403.392C377.893 391.675 377.98 388.526 373.497 368.348L372.345 363.166L365.554 383.539C363.386 390.038 362.277 396.843 362.272 403.695L372.743 466.519H351.342L335.669 398.6L335.662 377.824C334.281 376.395 333.509 374.486 333.509 372.498C333.509 370.511 334.281 368.601 335.662 367.172L340.869 336.047L346.139 294.1H403.87C403.87 294.1 414.058 315.218 403.933 336.167L403.932 419.39L398.701 476.933H382.551L377.319 419.364Z" fill="#2F2E41"/>
<path d="M400.34 299.177L346.341 294.677L346.061 294.654L350.37 217.083C350.624 212.206 352.335 207.517 355.283 203.623C358.231 199.73 362.279 196.81 366.905 195.243V189.815C366.906 188.471 367.44 187.183 368.391 186.233C369.341 185.283 370.629 184.748 371.972 184.747H379.862C380.804 184.744 381.728 185.004 382.529 185.5C383.33 185.995 383.976 186.704 384.395 187.548L388.253 195.265L402.842 206.936C410.047 212.701 404.248 270.496 403.936 273.546L407.464 291.189C407.658 292.159 407.635 293.161 407.396 294.121C407.156 295.081 406.707 295.977 406.081 296.743C405.454 297.509 404.666 298.127 403.772 298.552C402.878 298.977 401.902 299.199 400.912 299.201C400.722 299.201 400.532 299.193 400.34 299.177Z" fill="#E4E4E4"/>
<path d="M343.156 319.659C344.01 318.962 344.7 318.086 345.179 317.093C345.657 316.1 345.912 315.014 345.926 313.912C345.939 312.81 345.711 311.718 345.257 310.714C344.803 309.71 344.135 308.817 343.299 308.099L348.656 291.725L339.5 286.042L332.259 309.272C331.146 310.757 330.616 312.598 330.77 314.447C330.924 316.297 331.751 318.025 333.094 319.306C334.437 320.586 336.203 321.329 338.058 321.394C339.912 321.459 341.726 320.842 343.156 319.659Z" fill="#FFB6B6"/>
<path d="M361.987 208.343L354.553 205.865L343.816 253.772L333.927 301.415L348.8 303.604L360.335 252.946L361.987 208.343Z" fill="#E4E4E4"/>
<path d="M370.105 179.789C379.9 179.789 387.84 171.848 387.84 162.053C387.84 152.258 379.9 144.318 370.105 144.318C360.31 144.318 352.37 152.258 352.37 162.053C352.37 171.848 360.31 179.789 370.105 179.789Z" fill="#FFB6B6"/>
<path d="M346.243 153.368C346.406 151.687 346.888 150.053 347.662 148.552C348.491 150.355 351.077 150.668 352.847 149.77C354.617 148.873 355.803 147.169 357.068 145.64C360.406 141.605 364.996 138.332 370.198 137.736C375.4 137.14 381.134 139.766 383.1 144.619C383.982 143.395 385.864 143.259 387.195 143.97C388.481 144.781 389.485 145.97 390.068 147.374C391.377 150.06 392.117 152.988 392.241 155.974C392.365 158.96 391.871 161.939 390.789 164.725C388.599 170.268 383.189 177.737 377.608 179.829C374.22 181.099 370.797 179.473 367.194 179.829C367.383 175.896 368.145 171.043 368.334 167.11C368.437 164.957 368.452 162.547 366.981 160.97C366.53 160.542 365.99 160.218 365.4 160.021C364.809 159.824 364.183 159.76 363.565 159.832C362.947 159.904 362.352 160.111 361.823 160.439C361.294 160.766 360.843 161.206 360.503 161.727C360.321 160.504 359.908 159.327 359.286 158.258C358.967 157.728 358.506 157.298 357.956 157.016C357.405 156.734 356.787 156.611 356.171 156.662C354.666 156.909 353.737 158.453 352.356 159.1C351.572 159.414 350.71 159.482 349.887 159.293C349.063 159.104 348.317 158.668 347.748 158.043C347.195 157.406 346.777 156.663 346.519 155.859C346.26 155.056 346.166 154.208 346.243 153.368Z" fill="#2F2E41"/>
<path opacity="0.1" d="M372.401 252.731L351.572 294.389H367.194L372.401 252.731Z" fill="black"/>
<path d="M512 496.161C512 496.272 511.979 496.381 511.937 496.483C511.895 496.585 511.833 496.677 511.755 496.755C511.677 496.833 511.585 496.895 511.483 496.937C511.381 496.979 511.271 497 511.161 497H113.436C113.214 497 113 496.912 112.843 496.754C112.686 496.597 112.598 496.384 112.598 496.161C112.598 495.939 112.686 495.726 112.843 495.568C113 495.411 113.214 495.323 113.436 495.323H511.161C511.271 495.322 511.381 495.344 511.483 495.386C511.585 495.428 511.677 495.489 511.755 495.567C511.833 495.645 511.895 495.738 511.937 495.84C511.979 495.942 512 496.051 512 496.161Z" fill="#CACACA"/>
</g>
<defs>
<clipPath id="clip0_52_132">
<rect width="512" height="497" fill="white"/>
</clipPath>
</defs>
</svg>
