<svg width="658" height="600" viewBox="0 0 658 600" fill="none" xmlns="http://www.w3.org/2000/svg">
<g clip-path="url(#clip0_49_2)">
<path d="M401.38 398.532L257.668 399.666C257.165 399.669 256.682 399.473 256.324 399.12C255.965 398.768 255.762 398.287 255.757 397.785L254.51 239.664C254.506 239.161 254.702 238.677 255.055 238.319C255.408 237.961 255.888 237.757 256.391 237.753L400.102 236.619C400.605 236.616 401.089 236.812 401.447 237.164C401.805 237.517 402.009 237.997 402.013 238.5L403.261 396.621C403.264 397.124 403.068 397.607 402.715 397.965C402.363 398.324 401.882 398.527 401.38 398.532Z" fill="white"/>
<path d="M401.38 398.532L257.668 399.666C257.165 399.669 256.682 399.473 256.324 399.12C255.965 398.768 255.762 398.287 255.757 397.785L254.51 239.664C254.506 239.161 254.702 238.677 255.055 238.319C255.408 237.961 255.888 237.757 256.391 237.753L400.102 236.619C400.605 236.616 401.089 236.812 401.447 237.164C401.805 237.517 402.009 237.997 402.013 238.5L403.261 396.621C403.264 397.124 403.068 397.607 402.715 397.965C402.363 398.324 401.882 398.527 401.38 398.532ZM256.397 238.511C256.095 238.514 255.807 238.636 255.595 238.851C255.384 239.066 255.266 239.356 255.268 239.658L256.515 397.779C256.518 398.08 256.64 398.368 256.855 398.58C257.07 398.792 257.36 398.909 257.662 398.907L401.374 397.774C401.675 397.771 401.964 397.649 402.175 397.434C402.387 397.219 402.504 396.929 402.502 396.627L401.255 238.506C401.252 238.205 401.13 237.916 400.915 237.705C400.7 237.493 400.41 237.375 400.108 237.378L256.397 238.511Z" fill="#3F3D56"/>
<path d="M318.863 297.554L283.22 297.836C282.717 297.839 282.234 297.643 281.875 297.29C281.517 296.938 281.313 296.457 281.309 295.955L281.028 260.311C281.024 259.808 281.22 259.325 281.573 258.967C281.926 258.608 282.406 258.405 282.909 258.4L318.552 258.119C319.055 258.116 319.538 258.312 319.897 258.664C320.255 259.017 320.459 259.497 320.463 260L320.744 295.644C320.748 296.146 320.552 296.63 320.199 296.988C319.846 297.346 319.366 297.55 318.863 297.554ZM282.915 259.159C282.613 259.161 282.325 259.284 282.113 259.498C281.902 259.713 281.784 260.004 281.786 260.305L282.067 295.949C282.07 296.25 282.192 296.538 282.407 296.75C282.622 296.962 282.912 297.079 283.214 297.077L318.857 296.796C319.159 296.793 319.447 296.671 319.659 296.456C319.87 296.241 319.988 295.951 319.986 295.65L319.705 260.006C319.702 259.704 319.58 259.416 319.365 259.205C319.15 258.993 318.86 258.875 318.558 258.877L282.915 259.159Z" fill="#F2F2F2"/>
<path d="M308.66 301.996L273.016 302.277C272.564 302.28 272.129 302.104 271.806 301.786C271.484 301.469 271.3 301.037 271.296 300.584L271.015 264.941C271.012 264.488 271.189 264.053 271.506 263.731C271.823 263.408 272.256 263.225 272.708 263.221L308.352 262.94C308.804 262.937 309.239 263.113 309.561 263.43C309.884 263.748 310.067 264.18 310.071 264.632L310.353 300.276C310.356 300.728 310.179 301.164 309.862 301.486C309.544 301.808 309.112 301.992 308.66 301.996Z" fill="#6C63FF"/>
<path d="M384.635 318.84L273.154 319.719C272.929 319.722 272.707 319.68 272.499 319.596C272.29 319.512 272.101 319.388 271.941 319.231C271.781 319.073 271.653 318.886 271.566 318.679C271.478 318.473 271.432 318.251 271.43 318.027C271.429 317.802 271.471 317.58 271.555 317.372C271.64 317.164 271.764 316.975 271.922 316.815C272.079 316.655 272.267 316.528 272.474 316.441C272.68 316.354 272.902 316.308 273.127 316.307L384.608 315.427C385.06 315.424 385.496 315.6 385.818 315.918C386.141 316.235 386.324 316.668 386.327 317.12C386.331 317.573 386.155 318.008 385.837 318.331C385.52 318.653 385.087 318.837 384.635 318.84L384.635 318.84Z" fill="#CCCCCC"/>
<path d="M357.805 330.807L273.246 331.474C273.022 331.477 272.799 331.435 272.591 331.351C272.383 331.267 272.194 331.143 272.034 330.985C271.874 330.828 271.746 330.641 271.658 330.434C271.571 330.228 271.525 330.006 271.523 329.782C271.521 329.557 271.564 329.335 271.648 329.127C271.732 328.919 271.857 328.73 272.015 328.57C272.172 328.41 272.36 328.283 272.566 328.196C272.773 328.109 272.995 328.063 273.22 328.062L357.778 327.395C358.231 327.391 358.666 327.567 358.989 327.885C359.311 328.202 359.494 328.635 359.498 329.088C359.502 329.54 359.325 329.976 359.008 330.298C358.69 330.621 358.258 330.804 357.805 330.807L357.805 330.807Z" fill="#CCCCCC"/>
<path d="M383.914 275.616L334.62 276.005C334.168 276.008 333.732 275.832 333.41 275.514C333.087 275.197 332.904 274.764 332.9 274.312C332.897 273.859 333.073 273.424 333.391 273.101C333.708 272.779 334.141 272.596 334.593 272.592L383.887 272.203C384.112 272.201 384.334 272.243 384.543 272.327C384.751 272.411 384.94 272.535 385.1 272.692C385.26 272.849 385.388 273.037 385.475 273.243C385.563 273.45 385.609 273.672 385.611 273.896C385.613 274.12 385.57 274.343 385.486 274.551C385.401 274.759 385.277 274.948 385.119 275.108C384.962 275.268 384.774 275.395 384.567 275.482C384.361 275.569 384.139 275.615 383.914 275.616Z" fill="#6C63FF"/>
<path d="M371.705 287.468L334.713 287.759C334.26 287.763 333.825 287.587 333.502 287.269C333.18 286.952 332.997 286.519 332.993 286.067C332.99 285.614 333.166 285.179 333.483 284.856C333.801 284.534 334.233 284.35 334.686 284.347L371.678 284.055C372.131 284.051 372.566 284.228 372.889 284.545C373.211 284.863 373.394 285.295 373.398 285.748C373.401 286.2 373.225 286.636 372.908 286.958C372.59 287.281 372.158 287.464 371.705 287.468Z" fill="#6C63FF"/>
<path d="M384.82 342.35L273.339 343.229C272.887 343.233 272.451 343.056 272.129 342.739C271.806 342.421 271.623 341.989 271.619 341.536C271.616 341.084 271.792 340.648 272.11 340.326C272.427 340.003 272.86 339.82 273.312 339.816L384.793 338.937C385.018 338.935 385.24 338.977 385.448 339.061C385.656 339.145 385.846 339.269 386.006 339.426C386.166 339.583 386.294 339.771 386.381 339.977C386.469 340.184 386.515 340.406 386.517 340.63C386.518 340.854 386.476 341.077 386.391 341.285C386.307 341.493 386.183 341.682 386.025 341.842C385.867 342.001 385.68 342.129 385.473 342.216C385.266 342.303 385.044 342.348 384.82 342.35Z" fill="#CCCCCC"/>
<path d="M357.991 354.317L273.432 354.984C272.979 354.988 272.544 354.811 272.221 354.494C271.899 354.176 271.716 353.744 271.712 353.291C271.709 352.839 271.885 352.403 272.202 352.081C272.52 351.758 272.952 351.575 273.405 351.571L357.964 350.904C358.188 350.902 358.411 350.944 358.619 351.028C358.827 351.112 359.016 351.236 359.176 351.393C359.337 351.55 359.464 351.738 359.552 351.944C359.639 352.151 359.685 352.373 359.687 352.597C359.689 352.821 359.646 353.044 359.562 353.252C359.478 353.46 359.353 353.649 359.196 353.809C359.038 353.969 358.85 354.096 358.644 354.183C358.437 354.27 358.215 354.316 357.991 354.317L357.991 354.317Z" fill="#CCCCCC"/>
<path d="M385.006 365.859L273.525 366.739C273.3 366.741 273.078 366.699 272.869 366.615C272.661 366.531 272.472 366.407 272.312 366.25C272.152 366.093 272.024 365.905 271.937 365.699C271.849 365.492 271.803 365.27 271.801 365.046C271.799 364.822 271.842 364.599 271.926 364.391C272.011 364.183 272.135 363.994 272.293 363.834C272.45 363.674 272.638 363.547 272.845 363.46C273.051 363.373 273.273 363.327 273.498 363.326L384.979 362.447C385.431 362.443 385.867 362.619 386.189 362.937C386.512 363.254 386.695 363.687 386.698 364.14C386.702 364.592 386.526 365.028 386.208 365.35C385.891 365.673 385.458 365.856 385.006 365.859Z" fill="#CCCCCC"/>
<path d="M385.098 377.614L273.617 378.494C273.165 378.497 272.729 378.321 272.407 378.003C272.084 377.686 271.901 377.253 271.898 376.801C271.894 376.348 272.07 375.913 272.388 375.59C272.705 375.268 273.138 375.084 273.59 375.081L385.071 374.201C385.524 374.198 385.959 374.374 386.282 374.692C386.604 375.009 386.788 375.442 386.791 375.894C386.795 376.347 386.618 376.782 386.301 377.105C385.983 377.427 385.551 377.611 385.098 377.614Z" fill="#CCCCCC"/>
<path d="M226.359 469.962C226.539 492.237 220.006 514.051 207.612 532.561C195.218 551.07 177.537 565.419 156.872 573.736C155.251 574.401 153.599 575.021 151.94 575.596C150.087 576.248 148.213 576.847 146.319 577.394C145.003 577.772 143.675 578.127 142.334 578.459C122.143 583.466 100.955 582.73 81.1605 576.334C79.6053 575.829 78.0648 575.287 76.5391 574.722C74.4872 573.951 72.4574 573.121 70.4645 572.23C70.3142 572.171 70.1712 572.105 70.0283 572.038C69.2462 571.685 68.4865 571.331 67.7117 570.955L67.7042 570.955C66.6437 570.454 65.5929 569.933 64.5521 569.391C62.1593 568.151 59.8183 566.828 57.5291 565.422C56.3394 564.697 55.1669 563.945 54.0117 563.165C35.8316 551.098 21.6168 533.934 13.1484 513.824C4.68006 493.714 2.33472 471.552 6.40628 450.115C10.4778 428.678 20.7852 408.919 36.0369 393.314C51.2887 377.71 70.8064 366.953 92.1447 362.392C94.0972 361.972 96.0702 361.606 98.0636 361.296C99.3134 361.091 100.578 360.916 101.844 360.764C102.75 360.652 103.656 360.547 104.577 360.465L104.584 360.465C107.048 360.221 109.534 360.061 112.044 359.987C112.389 359.976 112.733 359.966 113.085 359.956C113.28 359.954 113.475 359.945 113.67 359.951L113.677 359.951C113.977 359.941 114.277 359.939 114.584 359.937C115.843 359.927 117.102 359.939 118.354 359.974C121.112 360.042 123.841 360.211 126.541 360.479C128.101 360.632 129.638 360.822 131.176 361.035C131.349 361.063 131.529 361.084 131.701 361.113C132.212 361.191 132.729 361.27 133.24 361.356C134.32 361.519 135.393 361.713 136.466 361.922C137.472 362.117 138.47 362.318 139.469 362.535C143.159 363.347 146.804 364.351 150.388 365.544C174.683 373.636 195.441 389.865 209.157 411.489C209.544 412.093 209.923 412.705 210.295 413.324C210.584 413.786 210.857 414.248 211.131 414.718C211.229 414.875 211.321 415.032 211.404 415.188C211.465 415.278 211.511 415.367 211.564 415.457C212.065 416.315 212.552 417.188 213.023 418.061C221.663 434.003 226.243 451.829 226.359 469.962Z" fill="white"/>
<path d="M116.351 582.49C104.329 582.584 92.3696 580.747 80.9301 577.048C79.4551 576.569 77.9341 576.038 76.2789 575.425C74.1908 574.641 72.1326 573.797 70.1587 572.914C70.0273 572.863 69.8712 572.792 69.7151 572.719C68.9666 572.381 68.2345 572.041 67.49 571.68L67.3842 571.633C66.3281 571.134 65.2589 570.603 64.2066 570.057C61.8099 568.814 59.431 567.47 57.1369 566.061C55.9432 565.334 54.7499 564.568 53.5922 563.786C35.2903 551.636 20.9807 534.357 12.4562 514.111C3.93163 493.865 1.57129 471.554 5.67087 449.972C9.77045 428.391 20.1476 408.499 35.5023 392.79C50.8569 377.08 70.5061 366.251 91.9881 361.659C93.9467 361.238 95.9524 360.867 97.9483 360.556C99.1305 360.362 100.413 360.181 101.754 360.02C102.666 359.907 103.58 359.802 104.51 359.719C106.977 359.475 109.505 359.313 112.022 359.237L113.265 359.204C113.407 359.2 113.55 359.198 113.692 359.202C113.959 359.192 114.265 359.19 114.578 359.188C115.846 359.178 117.123 359.19 118.375 359.225C121.139 359.294 123.912 359.465 126.615 359.734C128.046 359.874 129.572 360.057 131.279 360.293L132 360.401C132.454 360.47 132.912 360.541 133.364 360.617C134.337 360.764 135.372 360.946 136.61 361.187C137.62 361.382 138.624 361.585 139.628 361.803C143.344 362.621 147.015 363.633 150.625 364.833C175.071 373.003 195.962 389.336 209.79 411.088C210.179 411.695 210.561 412.311 210.938 412.938C211.224 413.396 211.501 413.865 211.778 414.342C211.867 414.482 211.961 414.642 212.048 414.804C212.09 414.869 212.128 414.934 212.165 415L212.208 415.075C212.686 415.892 213.167 416.75 213.682 417.705C221.164 431.54 225.638 446.8 226.813 462.485C227.988 478.17 225.836 493.926 220.499 508.722C215.163 523.518 206.761 537.02 195.844 548.343C184.927 559.667 171.742 568.557 157.151 574.431C155.569 575.08 153.897 575.711 152.186 576.304C150.333 576.956 148.428 577.565 146.527 578.114C145.211 578.492 143.861 578.853 142.514 579.187C133.953 581.311 125.172 582.419 116.351 582.49ZM67.8699 570.204L67.8738 570.204L68.0392 570.281C68.8076 570.654 69.5612 571.005 70.337 571.355C70.4737 571.419 70.6023 571.479 70.7376 571.532C72.7165 572.416 74.7461 573.249 76.8025 574.021C78.4353 574.625 79.9376 575.15 81.392 575.622C101.052 581.98 122.099 582.711 142.153 577.732C143.483 577.402 144.815 577.046 146.113 576.674C147.985 576.133 149.862 575.532 151.692 574.889C153.38 574.304 155.026 573.683 156.587 573.043C177.164 564.855 194.776 550.621 207.098 532.219C219.42 513.817 225.875 492.113 225.61 469.968L225.61 469.967C225.479 451.959 220.931 434.258 212.364 418.418C211.856 417.478 211.383 416.633 210.917 415.836L210.861 415.738C210.837 415.695 210.813 415.652 210.784 415.61L210.743 415.542C210.668 415.401 210.586 415.259 210.497 415.118C210.214 414.632 209.944 414.176 209.66 413.721C209.285 413.097 208.909 412.492 208.526 411.894C194.884 390.431 174.272 374.316 150.152 366.255C146.592 365.071 142.972 364.074 139.308 363.268C138.317 363.052 137.324 362.851 136.324 362.658C135.107 362.421 134.091 362.243 133.127 362.097C132.67 362.02 132.22 361.951 131.773 361.882L131.054 361.774C129.387 361.544 127.88 361.363 126.468 361.225C123.801 360.96 121.065 360.791 118.335 360.724C117.099 360.689 115.84 360.676 114.59 360.686C114.285 360.69 113.995 360.691 113.702 360.7C113.53 360.697 113.413 360.7 113.296 360.702L112.066 360.736C109.584 360.81 107.091 360.97 104.658 361.211L104.583 361.215C103.731 361.293 102.833 361.397 101.936 361.508C100.613 361.667 99.3518 361.845 98.1847 362.036C96.2112 362.343 94.234 362.709 92.3022 363.124C71.108 367.654 51.7221 378.339 36.5733 393.838C21.4245 409.337 11.1867 428.962 7.14254 450.255C3.09841 471.547 5.42784 493.559 13.839 513.533C22.2501 533.507 36.3689 550.555 54.4262 562.54C55.5696 563.313 56.7431 564.066 57.9191 564.783C60.1846 566.174 62.5315 567.5 64.897 568.726C65.882 569.238 66.8811 569.735 67.8699 570.204Z" fill="#CBCBCB"/>
<path d="M210.168 446.007C208.97 447.597 207.438 448.905 205.68 449.838C203.921 450.772 201.98 451.308 199.992 451.41C198.004 451.512 196.017 451.177 194.173 450.428C192.328 449.679 190.67 448.535 189.316 447.077L160.14 457.896L149.241 441.77L190.657 427.069C193.259 424.956 196.545 423.871 199.893 424.019C203.242 424.167 206.419 425.538 208.824 427.872C211.229 430.206 212.695 433.342 212.942 436.684C213.19 440.027 212.203 443.344 210.168 446.007Z" fill="#9F616A"/>
<path d="M118.753 448.238L178.875 427.838L189.208 449.93L133.144 467.608L118.753 448.238Z" fill="#CCCCCC"/>
<path d="M142.334 578.46C122.143 583.467 100.955 582.73 81.1605 576.334L82.4086 563.57L83.566 551.646L102.108 522.477L108.051 513.13L132.918 521.949L135.569 537.852L139.793 563.215L142.334 578.46Z" fill="#2F2E41"/>
<path d="M156.872 573.736C155.251 574.401 153.599 575.021 151.94 575.596C150.087 576.248 148.213 576.847 146.319 577.394C145.003 577.772 143.675 578.127 142.334 578.459C122.143 583.467 100.955 582.73 81.1604 576.334C79.6053 575.829 78.0648 575.287 76.5391 574.722C76.7817 579.158 76.6815 583.606 76.2394 588.026C74.034 582.867 72.1062 577.594 70.4645 572.23C70.3493 571.871 70.2415 571.512 70.1338 571.153C69.5949 569.344 69.1167 567.617 68.6842 565.994C68.1898 564.117 67.7639 562.374 67.4067 560.781C65.986 554.527 65.5208 550.657 65.5208 550.657L79.9301 520.119L82.8627 520.433L84.0776 520.558L91.4276 521.339L102.108 522.476L119.41 524.311L135.569 537.852L150.045 549.99C150.045 549.99 151.276 554.057 153.21 560.793C154.258 564.412 155.499 568.801 156.872 573.736Z" fill="#2F2E41"/>
<path d="M108.832 371.733C123.147 371.62 134.661 359.924 134.548 345.609C134.435 331.294 122.738 319.781 108.423 319.893C94.1084 320.006 82.5953 331.703 82.7083 346.018C82.8212 360.333 94.5173 371.846 108.832 371.733Z" fill="#9F616A"/>
<path d="M127.101 400.273C127.101 400.273 120.72 381.067 106.069 381.182C102.407 381.211 96.4988 381.561 91.7185 384.735C72.4738 397.51 60.8748 419.06 60.1553 442.148L56.5607 557.491C56.5607 557.491 81.4245 566.31 90.4134 562.859C99.4023 559.407 108.24 536.797 108.24 536.797C108.24 536.797 106.226 567.242 115.233 566.044C124.239 564.846 158.03 562.325 159.121 557.809C160.213 553.292 141.069 456.514 141.069 456.514L127.101 400.273Z" fill="#CCCCCC"/>
<path d="M96.0872 353.512C98.4114 353.355 100.688 354.122 103 354.411C111.27 355.442 119.817 349.38 121.577 341.233C121.715 340.149 122.029 339.095 122.508 338.113C123.763 336.027 126.655 335.608 129.046 336.067C131.437 336.525 133.709 337.625 136.141 337.733C139.896 337.901 143.481 335.561 145.456 332.363C147.432 329.165 147.967 325.245 147.668 321.498L145.883 323.401C145.14 321.86 144.844 320.141 145.029 318.44C144.074 318.194 143.071 318.197 142.117 318.449C141.163 318.701 140.289 319.194 139.58 319.88C137.995 320.062 139.168 316.94 137.981 315.874C137.405 315.527 136.72 315.404 136.059 315.531C132.684 315.59 129.933 313.03 127.257 310.972C122.62 307.415 117.211 305 111.468 303.92C107.65 303.207 103.596 303.119 99.993 304.567C97.0336 305.756 94.5656 307.899 92.2842 310.127C86.6679 315.614 81.7071 322.047 79.4118 329.555C77.5463 335.705 77.5438 342.269 79.4049 348.42C80.3788 351.615 83.3243 362.558 87.5119 362.78C92.7737 363.06 89.5441 353.954 96.0872 353.512Z" fill="#2F2E41"/>
<path opacity="0.1" d="M107.672 434.555L81.4367 473.692L73.6617 564.18L107.672 434.555Z" fill="black"/>
<path d="M219.975 409.872C220.603 408.976 220.84 408.059 220.504 407.824C220.168 407.588 219.387 408.123 218.759 409.018C218.13 409.914 217.893 410.831 218.229 411.066C218.565 411.302 219.346 410.767 219.975 409.872Z" fill="#3F3D56"/>
<path d="M184.909 452.09C184.157 451.562 183.645 450.757 183.487 449.852C183.328 448.946 183.535 448.015 184.063 447.263L213.917 404.715C214.445 403.962 215.25 403.451 216.155 403.292C217.06 403.133 217.991 403.341 218.744 403.868L184.909 452.09L184.909 452.09Z" fill="#6C63FF"/>
<path d="M186.182 456.309L184.426 455.076C184.124 454.865 183.867 454.596 183.67 454.285C183.472 453.974 183.338 453.628 183.274 453.265C183.211 452.902 183.219 452.53 183.299 452.171C183.379 451.812 183.529 451.471 183.741 451.17L217.732 402.725C218.092 402.211 218.643 401.861 219.261 401.753C219.88 401.644 220.516 401.786 221.03 402.147L223.144 403.63L186.182 456.309L186.182 456.309Z" fill="#2F2E41"/>
<path d="M216.733 407.596L214.458 410.839L215.268 411.408L217.543 408.165L216.733 407.596Z" fill="#D0CDE1"/>
<path d="M213.605 412.054L211.33 415.296L212.141 415.865L214.416 412.623L213.605 412.054Z" fill="#D0CDE1"/>
<path d="M79.9195 593.628C81.0696 592.003 81.8495 590.145 82.2042 588.187C82.5589 586.228 82.4797 584.215 81.9724 582.29C81.465 580.365 80.5417 578.575 79.2676 577.045C77.9935 575.516 76.3995 574.284 74.5979 573.437L76.034 542.353L57.3573 536.874L55.9458 580.798C54.7237 583.919 54.6889 587.38 55.8479 590.525C57.007 593.67 59.2793 596.28 62.2344 597.861C65.1894 599.443 68.6219 599.885 71.8814 599.105C75.1409 598.325 78.0009 596.376 79.9195 593.628L79.9195 593.628Z" fill="#9F616A"/>
<path d="M79.6187 568.071L52.6635 568.284L44.5915 485.314L44.6163 485.238L69.261 410.944C70.1288 408.328 71.5318 405.921 73.3807 403.877C75.2296 401.833 77.4838 400.197 80 399.072C82.5161 397.947 85.2389 397.358 87.995 397.343C90.7511 397.328 93.48 397.888 96.0081 398.985C98.5362 400.083 100.808 401.695 102.679 403.719C104.55 405.743 105.978 408.134 106.874 410.741C107.77 413.347 108.114 416.112 107.882 418.858C107.651 421.605 106.851 424.273 105.532 426.693L76.2669 480.389L79.6187 568.071Z" fill="#CCCCCC"/>
<path d="M653.647 203.444C653.84 225.299 647.578 246.724 635.644 265.034C623.711 283.344 606.639 297.724 586.567 306.371C566.495 315.019 544.317 317.548 522.813 313.643C501.31 309.739 481.437 299.573 465.687 284.421C449.937 269.268 439.01 249.804 434.276 228.468C429.543 207.131 431.213 184.872 439.077 164.481C446.941 144.089 460.65 126.473 478.485 113.841C496.32 101.208 517.486 94.1214 539.332 93.4689C539.677 93.4587 540.021 93.4484 540.373 93.4382C540.868 93.4268 541.37 93.4228 541.872 93.4189C543.131 93.4089 544.39 93.4215 545.642 93.4566C548.4 93.5247 551.129 93.693 553.829 93.9615C555.389 94.1141 556.926 94.3043 558.464 94.5169C558.637 94.5455 558.817 94.5666 558.99 94.5952C565.336 95.5224 571.589 97.0052 577.676 99.0265C599.651 106.328 618.792 120.321 632.415 139.046C646.039 157.771 653.463 180.289 653.647 203.444Z" fill="white"/>
<path d="M543.526 316.176C481.953 316.664 431.44 266.997 430.896 205.412C430.638 176.181 441.844 148.012 462.11 126.946C482.377 105.88 510.091 93.5927 539.31 92.7198L540.351 92.6889C542.116 92.6497 543.912 92.6583 545.663 92.7074C548.424 92.776 551.197 92.9469 553.903 93.2161C555.335 93.3559 556.862 93.5389 558.567 93.775L559.112 93.856C585.463 97.7349 609.556 110.916 627.032 131.015C644.509 151.114 654.216 176.804 654.397 203.438L654.397 203.438C654.941 265.057 605.252 315.63 543.633 316.175L543.526 316.176ZM541.866 94.1684C541.372 94.1723 540.877 94.1762 540.391 94.1874L539.355 94.2182C479.851 95.9953 431.869 145.871 432.395 205.398C432.931 266.154 482.772 315.153 543.514 314.677L543.62 314.676C604.413 314.139 653.435 264.244 652.898 203.451L652.898 203.45C652.72 177.172 643.142 151.824 625.898 131.994C608.653 112.164 584.881 99.161 558.881 95.3368L558.342 95.2565C556.676 95.026 555.169 94.8454 553.756 94.7076C551.086 94.4418 548.35 94.2731 545.623 94.2057C544.387 94.1708 543.128 94.1584 541.878 94.1683L541.866 94.1684Z" fill="#CBCBCB"/>
<path d="M457.937 210.975C458.154 210.627 457.577 209.876 456.648 209.298C455.719 208.721 454.791 208.534 454.574 208.883C454.357 209.231 454.934 209.982 455.863 210.56C456.792 211.138 457.72 211.324 457.937 210.975Z" fill="#3F3D56"/>
<path d="M454.644 204.554C454.884 204.167 455.198 203.832 455.568 203.567C455.938 203.302 456.357 203.113 456.8 203.009C457.243 202.906 457.702 202.891 458.151 202.966C458.6 203.04 459.03 203.202 459.417 203.442L503.547 230.903C503.934 231.143 504.269 231.457 504.534 231.827C504.799 232.197 504.988 232.616 505.092 233.059C505.195 233.502 505.21 233.961 505.135 234.41C505.061 234.859 504.899 235.289 504.659 235.675L454.644 204.554L454.644 204.554Z" fill="#6C63FF"/>
<path d="M450.502 206.057L451.866 203.865C452.198 203.332 452.728 202.952 453.339 202.81C453.951 202.667 454.594 202.774 455.127 203.105L505.374 234.371C505.687 234.566 505.958 234.82 506.172 235.12C506.387 235.419 506.54 235.758 506.624 236.117C506.707 236.475 506.719 236.847 506.659 237.21C506.599 237.574 506.468 237.922 506.273 238.234L505.14 240.056L450.502 206.057L450.502 206.057Z" fill="#2F2E41"/>
<path d="M457.955 207.197L457.432 208.038L460.795 210.13L461.318 209.29L457.955 207.197Z" fill="#D0CDE1"/>
<path d="M462.578 210.074L462.055 210.914L465.418 213.007L465.941 212.166L462.578 210.074Z" fill="#D0CDE1"/>
<path d="M542.258 104.833C559.496 104.697 573.359 90.613 573.223 73.3758C573.087 56.1385 559.003 42.2752 541.766 42.4111C524.529 42.5471 510.665 56.6309 510.801 73.8682C510.937 91.1054 525.021 104.969 542.258 104.833Z" fill="#FFB8B8"/>
<path d="M573.607 310.876C548.342 318.148 521.318 316.251 497.316 305.521L499.209 241.434L499.349 236.45L499.404 234.831L499.468 232.447L499.516 230.926C499.516 230.926 499.613 230.917 499.8 230.908C500.31 230.867 501.485 230.775 503.17 230.664C505.125 230.537 507.754 230.374 510.818 230.222C511.545 230.186 512.294 230.15 513.065 230.107C529.201 229.38 554.407 229.054 557.78 233.891L558.222 236.75L558.933 241.368L560.387 250.806C560.387 250.806 576.308 281.854 573.607 310.876Z" fill="#2F2E41"/>
<path d="M580.256 149.227L574.557 206.059L563.053 232.049L558.79 241.687L495.982 241.421L502.107 197.598C492.786 174.072 514.406 164.385 514.406 164.385L536.547 118.098C536.547 118.098 542.518 115.054 558.165 114.176C572.711 113.36 561.257 115.655 561.257 115.655C580.273 113.602 580.256 149.227 580.256 149.227Z" fill="#CCCCCC"/>
<path opacity="0.2" d="M561.842 209.157L550.338 235.147C546.522 228.143 543.597 220.199 543.56 215.495C543.458 202.553 556.453 209.303 556.453 209.303C556.453 209.303 545.534 152.102 545.399 134.974C545.31 123.597 555.193 174.012 561.842 209.157Z" fill="black"/>
<path d="M577.833 54.3235C575.763 49.3845 572.587 44.9866 568.55 41.4686C570.19 40.9043 571.553 39.7369 572.364 38.2037C573.546 35.8163 572.886 32.8393 571.236 30.7238C569.733 28.9374 567.797 27.5669 565.612 26.7436C567.213 27.4567 568.962 27.7787 570.712 27.683C572.833 27.4455 574.942 25.7628 574.8 23.6968C574.664 21.7285 572.716 20.4123 570.97 19.3984C569.837 18.7406 568.704 18.0829 567.571 17.4252C567.9 16.775 568.189 16.1049 568.436 15.4189C569.39 12.9244 569.603 10.2076 569.05 7.59481C568.497 4.98205 567.202 2.58445 565.319 0.690002C569.042 4.42072 568.145 10.247 564.533 14.998C564.417 15.1511 564.292 15.3005 564.171 15.4516C563.444 15.03 562.718 14.6084 561.992 14.1867C560.18 13.1351 558.297 12.0592 556.201 11.8244C554.104 11.5895 551.725 12.4374 550.884 14.3125C549.985 16.3196 551.046 18.8635 549.868 20.7298C548.837 22.3628 546.561 22.7267 544.586 22.6653C542.611 22.604 540.509 22.3086 538.759 23.1959C536.326 24.4293 535.55 27.7193 536.656 30.1596C537.147 31.1988 537.874 32.1089 538.779 32.8174C533.558 33.5885 528.421 35.1814 523.374 36.7999C517.423 38.7086 511.362 40.7338 506.405 44.5411C501.449 48.3484 497.719 54.3261 498.243 60.5539C498.767 66.7818 505.035 76.5476 511.197 75.5027L512.113 72.5547C515.83 70.7518 520.017 70.1542 524.09 70.8453C528.163 71.5363 531.919 73.4816 534.833 76.4096C534.874 72.4856 540.835 71.135 543.831 73.6695C546.827 76.204 547.435 80.5242 547.697 84.4397C547.958 88.3551 548.21 92.6187 550.814 95.5545C553.313 98.3723 557.539 99.2188 561.202 98.3446C564.866 97.4704 568.02 95.1172 570.627 92.3989C580.084 82.5372 583.033 66.9592 577.833 54.3235Z" fill="#2F2E41"/>
<path d="M479.725 237.799C481.35 238.95 483.207 239.729 485.166 240.084C487.125 240.439 489.138 240.36 491.063 239.852C492.988 239.345 494.778 238.422 496.308 237.147C497.837 235.873 499.069 234.279 499.916 232.478L584.951 233.488L590.431 214.812L492.554 213.826C489.433 212.604 485.973 212.569 482.828 213.728C479.683 214.887 477.073 217.159 475.491 220.114C473.91 223.069 473.468 226.502 474.248 229.761C475.028 233.021 476.977 235.881 479.725 237.799L479.725 237.799Z" fill="#FFB8B8"/>
<path d="M561.4 112.58C561.4 112.58 541.62 114.259 541.755 131.387C541.89 148.514 560.259 209.273 560.259 209.273C560.259 209.273 547.264 202.523 547.366 215.465C547.469 228.406 569.461 265.916 571.547 240.777C571.547 240.777 604.406 256.505 602.266 226.451C600.126 196.397 579.071 132.995 579.071 132.995C579.071 132.995 576.616 111.318 561.4 112.58Z" fill="#CCCCCC"/>
</g>
<defs>
<clipPath id="clip0_49_2">
<rect width="652.812" height="594.854" fill="white" transform="translate(0 5.14954) rotate(-0.451968)"/>
</clipPath>
</defs>
</svg>
