<svg width="689" height="295" viewBox="0 0 689 295" fill="none" xmlns="http://www.w3.org/2000/svg">
<g clip-path="url(#clip0_49_46)">
<path d="M151.231 164.574C151.237 163.668 151.057 162.771 150.701 161.939C150.345 161.106 149.821 160.356 149.162 159.735C148.502 159.114 147.722 158.635 146.87 158.329C146.017 158.023 145.111 157.895 144.207 157.955C143.303 158.015 142.421 158.26 141.617 158.676C140.812 159.091 140.101 159.668 139.53 160.371C138.958 161.073 138.537 161.886 138.294 162.758C138.05 163.63 137.99 164.543 138.115 165.44L119.182 190.223C118.374 191.838 118.061 193.655 118.281 195.448C118.502 197.24 119.247 198.927 120.423 200.298L121.908 202.03L128.722 200.668L136.446 193.856L135.537 186.136L145.077 171.15L145.065 171.139C146.735 171.033 148.302 170.295 149.447 169.075C150.592 167.856 151.23 166.246 151.231 164.574Z" fill="#FFB9B9"/>
<path d="M20.3027 285.736L17.2121 274.262L60.0139 256.888L64.5751 273.821L20.3027 285.736Z" fill="#FFB8B8"/>
<path d="M9.96454 291.656L0 254.662L0.46811 254.536C4.28857 253.508 8.36111 254.039 11.79 256.012C15.2188 257.985 17.7231 261.239 18.7521 265.058L18.7523 265.059L24.8382 287.654L9.96454 291.656Z" fill="#2F2E41"/>
<path d="M79.2603 283.903L69.6472 276.915L92.0382 236.524L106.227 246.838L79.2603 283.903Z" fill="#FFB8B8"/>
<path d="M74.9355 295L43.9377 272.467L44.2229 272.075C46.55 268.876 50.0528 266.733 53.9608 266.116C57.8688 265.499 61.862 266.459 65.062 268.785L65.0628 268.785L83.9951 282.548L74.9355 295Z" fill="#2F2E41"/>
<path d="M160.978 227.46L136.787 203.97C134.675 201.92 131.894 200.7 128.956 200.536C126.017 200.372 123.117 201.274 120.791 203.077L75.1138 253.799L79.2027 260.157L122.816 230.639L152.346 269.239L180.513 255.162L160.978 227.46Z" fill="#2F2E41"/>
<path d="M150.529 232.456L132.811 231.094L119.98 227.984C119.255 226.854 118.202 225.972 116.962 225.456C115.722 224.941 114.354 224.816 113.041 225.099C111.728 225.382 110.533 226.06 109.616 227.04C108.699 228.021 108.103 229.258 107.909 230.587C107.715 231.915 107.931 233.271 108.529 234.473C109.127 235.675 110.078 236.666 111.255 237.313C112.432 237.96 113.778 238.232 115.114 238.092C116.45 237.953 117.711 237.409 118.729 236.534L118.727 236.543L126.451 239.722L159.615 251.075L163.704 247.896L150.529 232.456Z" fill="#FFB9B9"/>
<path d="M193.234 281.501L183.239 287.859H171.427L116.456 267.423L36.0434 281.955L33.772 264.698L107.37 232.456L171.882 253.799L193.234 281.501Z" fill="#2F2E41"/>
<path d="M171.881 171.15C181.667 171.15 189.599 163.221 189.599 153.439C189.599 143.658 181.667 135.729 171.881 135.729C162.096 135.729 154.163 143.658 154.163 153.439C154.163 163.221 162.096 171.15 171.881 171.15Z" fill="#FFB9B9"/>
<path d="M217.726 224.15C217.725 234.839 216.04 245.461 212.733 255.625L211.406 259.703L205.046 288.767L198.231 290.583L193.234 284.225L183.239 276.959L175.97 265.152L169.737 254.771L167.793 251.529L160.978 217.47L135.083 202.938L126.451 201.576L128.268 196.581L135.991 186.136L143.714 185.228L145.986 183.411L147.803 184.319L157.821 188.177L190.299 174.46L195.051 175.237L211.406 188.861C215.587 200.157 217.727 212.106 217.726 224.15Z" fill="#CCCCCC"/>
<path opacity="0.1" d="M212.769 220.195L195.505 231.547L169.737 254.771L167.793 251.529L162.341 224.282H163.704L177.788 198.397L212.769 220.195Z" fill="black"/>
<path d="M177.788 195.672L163.704 221.557L155.527 230.64L148.258 232.456L167.793 253.799L195.505 228.823L212.769 217.47L177.788 195.672Z" fill="#CCCCCC"/>
<path d="M158.1 140.271L156.181 141.009C155.889 140.812 155.64 140.559 155.446 140.265C155.252 139.972 155.118 139.643 155.052 139.297C154.985 138.952 154.987 138.597 155.058 138.252C155.129 137.908 155.267 137.58 155.464 137.289C155.475 137.274 155.485 137.259 155.496 137.243L151.948 137.078C154.225 134.046 157.121 131.532 160.443 129.702C163.765 127.873 167.437 126.769 171.218 126.465C174.998 126.16 178.801 126.661 182.373 127.936C185.945 129.21 189.206 131.227 191.939 133.856C192.101 133.299 193.862 134.381 194.58 135.478C194.822 134.573 196.473 138.947 197.057 142.039C197.327 141.01 198.366 142.672 197.456 144.266C198.033 144.182 198.293 145.657 197.847 146.479C198.478 146.183 198.372 147.944 197.687 149.122C198.588 149.042 197.61 167.585 184.094 166.234C183.153 161.912 183.418 162.181 182.31 156.623C181.794 156.076 181.229 155.578 180.665 155.08L177.616 152.389C174.069 149.26 170.843 145.399 166.119 144.229C162.872 143.425 160.82 143.244 162.589 139.587C160.99 140.254 159.498 141.245 157.885 141.865C157.906 141.354 158.132 140.782 158.1 140.271Z" fill="#2F2E41"/>
<path d="M180.74 158.662C182.497 158.662 183.921 157.238 183.921 155.483C183.921 153.727 182.497 152.304 180.74 152.304C178.984 152.304 177.56 153.727 177.56 155.483C177.56 157.238 178.984 158.662 180.74 158.662Z" fill="#FFB9B9"/>
<path d="M32.4383 80.4056L31.4678 94.972L46.0404 95.9421L47.0108 81.3757L32.4383 80.4056Z" fill="#E6E6E6"/>
<path d="M23.0362 88.1404L40.7314 89.3183L39.5529 107.006L21.8577 105.828L23.0362 88.1404ZM39.9108 90.0361L23.7543 88.9606L22.6783 105.11L38.8348 106.186L39.9108 90.0361Z" fill="#CCCCCC"/>
<path d="M114.79 37.2117L100.511 40.2786L103.579 54.5515L117.858 51.4847L114.79 37.2117Z" fill="#E6E6E6"/>
<path d="M104.768 30.2986L108.493 47.63L91.1548 51.354L87.4292 34.0226L104.768 30.2986ZM107.578 47.0384L104.176 31.214L88.345 34.6142L91.7466 50.4385L107.578 47.0384Z" fill="#CCCCCC"/>
<path d="M99.7863 105.755L89.1271 115.735L99.1113 126.39L109.77 116.41L99.7863 105.755Z" fill="#E6E6E6"/>
<path d="M110.537 104.263L97.5936 116.381L85.47 103.443L98.4133 91.3247L110.537 104.263ZM97.6292 115.292L109.447 104.227L98.3776 92.4141L86.5599 103.479L97.6292 115.292Z" fill="#CCCCCC"/>
<path d="M651.013 0H218.898C217.336 -1.77428e-06 215.79 0.307506 214.347 0.904966C212.904 1.50243 211.592 2.37813 210.488 3.4821C209.384 4.58606 208.508 5.89666 207.91 7.33906C207.312 8.78146 207.004 10.3274 207.004 11.8887V252.555C207.004 254.116 207.312 255.662 207.91 257.104C208.508 258.547 209.384 259.857 210.488 260.961C211.592 262.065 212.904 262.941 214.347 263.539C215.79 264.136 217.336 264.444 218.898 264.444H651.013C654.168 264.444 657.193 263.191 659.423 260.961C661.654 258.732 662.907 255.708 662.907 252.555V11.8887C662.907 8.73558 661.654 5.71166 659.423 3.48211C657.193 1.25255 654.168 1.79167e-06 651.013 0Z" fill="#3F3D56"/>
<path d="M646.961 21.0106H222.95V260.097H646.961V21.0106Z" fill="white"/>
<path d="M434.593 14.49C436.995 14.49 438.942 12.5438 438.942 10.143C438.942 7.74224 436.995 5.79602 434.593 5.79602C432.192 5.79602 430.244 7.74224 430.244 10.143C430.244 12.5438 432.192 14.49 434.593 14.49Z" fill="white"/>
<path d="M525.701 260.097H222.95V21.011L525.701 260.097Z" fill="#F2F2F2"/>
<path d="M289.295 242.206C311.805 242.206 330.053 223.966 330.053 201.465C330.053 178.965 311.805 160.725 289.295 160.725C266.786 160.725 248.538 178.965 248.538 201.465C248.538 223.966 266.786 242.206 289.295 242.206Z" fill="white"/>
<path d="M298.368 232.086C288.341 232.086 278.539 229.113 270.202 223.545C261.865 217.976 255.367 210.062 251.529 200.802C247.692 191.542 246.688 181.352 248.644 171.522C250.601 161.692 255.429 152.662 262.519 145.575C269.61 138.487 278.643 133.661 288.478 131.705C298.312 129.75 308.506 130.754 317.77 134.589C327.033 138.425 334.951 144.92 340.522 153.254C346.093 161.588 349.066 171.386 349.066 181.409C349.066 188.064 347.755 194.653 345.207 200.802C342.659 206.95 338.925 212.537 334.217 217.243C329.509 221.948 323.921 225.681 317.77 228.228C311.619 230.775 305.026 232.086 298.368 232.086ZM298.368 131.394C288.472 131.394 278.798 134.327 270.57 139.823C262.342 145.319 255.929 153.13 252.142 162.269C248.355 171.408 247.364 181.464 249.294 191.166C251.225 200.868 255.99 209.779 262.988 216.774C269.985 223.769 278.901 228.532 288.607 230.462C298.313 232.392 308.373 231.401 317.516 227.616C326.659 223.83 334.473 217.42 339.971 209.195C345.469 200.97 348.404 191.301 348.404 181.409C348.404 174.841 347.109 168.337 344.595 162.269C342.08 156.201 338.395 150.687 333.749 146.043C329.102 141.399 323.587 137.715 317.516 135.201C311.445 132.688 304.939 131.394 298.368 131.394L298.368 131.394Z" fill="#3F3D56"/>
<path d="M548.804 145.223H509.197V153.495H548.804V145.223Z" fill="#3F3D56"/>
<path d="M586.276 100.405H471.724V103.95H586.276V100.405Z" fill="#3F3D56"/>
<path d="M586.276 114.334H471.724V117.88H586.276V114.334Z" fill="#3F3D56"/>
<path d="M586.276 128.264H471.724V131.809H586.276V128.264Z" fill="#3F3D56"/>
<path d="M616.962 35.3188H600.41V51.8642H616.962V35.3188Z" fill="white"/>
<path d="M624.647 59.546H604.548V39.4552H624.647V59.546ZM605.422 58.6726H623.773V40.3287H605.422L605.422 58.6726Z" fill="#CCCCCC"/>
<path d="M674.812 255.749H633.432V252.769C633.432 252.692 633.416 252.615 633.387 252.543C633.357 252.471 633.313 252.406 633.258 252.351C633.204 252.296 633.138 252.253 633.067 252.223C632.995 252.194 632.918 252.178 632.84 252.178H618.653C618.575 252.178 618.498 252.194 618.427 252.223C618.355 252.253 618.29 252.296 618.235 252.351C618.18 252.406 618.136 252.471 618.107 252.543C618.077 252.615 618.062 252.691 618.062 252.769V255.749H609.194V252.769C609.194 252.692 609.179 252.615 609.149 252.543C609.12 252.471 609.076 252.406 609.021 252.351C608.966 252.296 608.901 252.253 608.829 252.223C608.758 252.194 608.681 252.178 608.603 252.178H594.416C594.338 252.178 594.261 252.194 594.189 252.223C594.118 252.253 594.052 252.296 593.998 252.351C593.943 252.406 593.899 252.471 593.869 252.543C593.84 252.615 593.824 252.692 593.824 252.769V255.749H584.957V252.769C584.957 252.692 584.942 252.615 584.912 252.543C584.882 252.471 584.839 252.406 584.784 252.351C584.729 252.296 584.664 252.253 584.592 252.223C584.52 252.194 584.444 252.178 584.366 252.178H570.178C570.101 252.178 570.024 252.194 569.952 252.223C569.88 252.253 569.815 252.296 569.76 252.351C569.705 252.406 569.662 252.471 569.632 252.543C569.602 252.615 569.587 252.692 569.587 252.769V255.749H560.72V252.769C560.72 252.692 560.705 252.615 560.675 252.543C560.645 252.471 560.602 252.406 560.547 252.351C560.492 252.296 560.427 252.253 560.355 252.223C560.283 252.194 560.206 252.178 560.129 252.178H545.941C545.863 252.178 545.786 252.194 545.715 252.223C545.643 252.253 545.578 252.296 545.523 252.351C545.468 252.406 545.425 252.471 545.395 252.543C545.365 252.615 545.35 252.691 545.35 252.769V255.749H536.483V252.769C536.483 252.692 536.467 252.615 536.438 252.543C536.408 252.471 536.364 252.406 536.309 252.351C536.254 252.296 536.189 252.253 536.118 252.223C536.046 252.194 535.969 252.178 535.891 252.178H521.704C521.626 252.178 521.549 252.194 521.477 252.223C521.406 252.253 521.341 252.296 521.286 252.351C521.231 252.406 521.187 252.471 521.158 252.543C521.128 252.615 521.113 252.692 521.113 252.769V255.749H512.245V252.769C512.245 252.692 512.23 252.615 512.2 252.543C512.171 252.471 512.127 252.406 512.072 252.351C512.017 252.296 511.952 252.253 511.88 252.223C511.809 252.194 511.732 252.178 511.654 252.178H497.466C497.389 252.178 497.312 252.194 497.24 252.223C497.168 252.253 497.103 252.296 497.048 252.351C496.993 252.406 496.95 252.471 496.92 252.543C496.891 252.615 496.875 252.692 496.875 252.769V255.749H488.008V252.769C488.008 252.692 487.993 252.615 487.963 252.543C487.933 252.471 487.89 252.406 487.835 252.351C487.78 252.296 487.715 252.253 487.643 252.223C487.571 252.194 487.494 252.178 487.417 252.178H376.28C376.202 252.178 376.125 252.194 376.054 252.223C375.982 252.253 375.917 252.296 375.862 252.351C375.807 252.406 375.764 252.471 375.734 252.543C375.704 252.615 375.689 252.692 375.689 252.769V255.749H366.822V252.769C366.822 252.692 366.806 252.615 366.777 252.543C366.747 252.471 366.703 252.406 366.648 252.351C366.593 252.296 366.528 252.253 366.457 252.223C366.385 252.194 366.308 252.178 366.23 252.178H352.043C351.965 252.178 351.888 252.194 351.816 252.223C351.745 252.253 351.68 252.296 351.625 252.351C351.57 252.406 351.526 252.471 351.497 252.543C351.467 252.615 351.452 252.692 351.452 252.769V255.749H342.584V252.769C342.584 252.692 342.569 252.615 342.539 252.543C342.51 252.471 342.466 252.406 342.411 252.351C342.356 252.296 342.291 252.253 342.219 252.223C342.148 252.194 342.071 252.178 341.993 252.178H327.805C327.728 252.178 327.651 252.194 327.579 252.223C327.507 252.253 327.442 252.296 327.387 252.351C327.333 252.406 327.289 252.471 327.259 252.543C327.23 252.615 327.214 252.692 327.214 252.769V255.749H318.347V252.769C318.347 252.692 318.332 252.615 318.302 252.543C318.272 252.471 318.229 252.406 318.174 252.351C318.119 252.296 318.054 252.253 317.982 252.223C317.91 252.194 317.833 252.178 317.756 252.178H303.568C303.491 252.178 303.414 252.194 303.342 252.223C303.27 252.253 303.205 252.296 303.15 252.351C303.095 252.406 303.052 252.471 303.022 252.543C302.992 252.615 302.977 252.692 302.977 252.769V255.749H294.11V252.769C294.11 252.692 294.094 252.615 294.065 252.543C294.035 252.471 293.991 252.406 293.937 252.351C293.882 252.296 293.816 252.253 293.745 252.223C293.673 252.194 293.596 252.178 293.519 252.178H279.331C279.253 252.178 279.176 252.194 279.105 252.223C279.033 252.253 278.968 252.296 278.913 252.351C278.858 252.406 278.814 252.471 278.785 252.543C278.755 252.615 278.74 252.692 278.74 252.769V255.749H269.872V252.769C269.872 252.692 269.857 252.615 269.827 252.543C269.798 252.471 269.754 252.406 269.699 252.351C269.644 252.296 269.579 252.253 269.507 252.223C269.436 252.194 269.359 252.178 269.281 252.178H255.094C254.937 252.178 254.786 252.24 254.676 252.351C254.565 252.462 254.502 252.612 254.502 252.769V255.749H245.635V252.769C245.635 252.692 245.62 252.615 245.59 252.543C245.56 252.471 245.517 252.406 245.462 252.351C245.407 252.296 245.342 252.253 245.27 252.223C245.198 252.194 245.122 252.178 245.044 252.178H230.856C230.7 252.178 230.549 252.241 230.438 252.351C230.327 252.462 230.265 252.612 230.265 252.769V255.749H203.072C199.309 255.749 195.701 257.243 193.04 259.903C190.379 262.563 188.884 266.17 188.884 269.931V276.344C188.884 280.105 190.379 283.712 193.04 286.372C195.701 289.031 199.309 290.525 203.072 290.525H674.812C678.575 290.525 682.184 289.031 684.845 286.372C687.505 283.712 689 280.105 689 276.344V269.931C689 268.069 688.633 266.225 687.92 264.504C687.207 262.783 686.162 261.22 684.845 259.903C683.527 258.586 681.963 257.542 680.242 256.829C678.52 256.116 676.675 255.749 674.812 255.749Z" fill="#3F3D56"/>
</g>
<defs>
<clipPath id="clip0_49_46">
<rect width="689" height="295" fill="white"/>
</clipPath>
</defs>
</svg>
