<svg width="663" height="663" viewBox="0 0 663 663" fill="none" xmlns="http://www.w3.org/2000/svg">
<g clip-path="url(#clip0_10_481)">
<path d="M663 331.5C663.115 409.752 635.436 485.501 584.897 545.243C583.061 547.422 581.192 549.567 579.288 551.701C556.88 576.902 530.778 598.556 501.873 615.925C495.243 619.905 488.467 623.656 481.547 627.177C480.847 627.533 480.136 627.889 479.436 628.233C478.599 628.657 477.75 629.07 476.901 629.483C459.389 638.055 441.147 645.049 422.393 650.382C420.443 650.933 418.489 651.468 416.531 651.988C391.861 658.516 366.519 662.169 341.009 662.874C339.679 662.908 338.371 662.931 337.109 662.954C336.662 662.966 336.226 662.977 335.79 662.977C334.356 662.989 332.934 663 331.5 663C304.618 663.02 277.832 659.773 251.734 653.33C249.118 652.688 246.514 652.011 243.922 651.3C230.267 647.572 216.868 642.963 203.809 637.501C196.927 634.633 190.167 631.54 183.529 628.221C182.027 627.464 180.524 626.707 179.044 625.927C178.414 625.617 177.794 625.285 177.175 624.964C141.797 606.291 110.072 581.4 83.5173 551.483C81.6821 549.43 79.8812 547.342 78.1032 545.243C48.8449 510.553 27.02 470.225 13.9804 426.758C0.940857 383.29 -3.03583 337.608 2.29671 292.542C7.62924 247.475 22.1574 203.983 44.9815 164.759C67.8055 125.535 98.4394 91.4143 134.986 64.5106C136.867 63.1226 138.76 61.7462 140.675 60.4041C141.054 60.1403 141.432 59.8765 141.811 59.6126C175.469 36.036 213.248 18.9754 253.19 9.3141C255.461 8.75204 257.733 8.22441 260.027 7.73117C303.291 -1.73242 348.003 -2.51609 391.571 5.42557C393.854 5.84998 396.137 6.28587 398.408 6.75616C437.994 14.8756 475.748 30.2069 509.787 51.9847C510.544 52.4665 511.301 52.9482 512.059 53.4529C513.584 54.4394 515.11 55.4488 516.612 56.4697C561.704 86.7845 598.643 127.729 624.173 175.693C649.702 223.657 663.036 277.165 663 331.5Z" fill="#F2F2F2"/>
<path d="M247.765 502.997L141.811 512.403L140.675 512.506V60.4041C141.054 60.1403 141.432 59.8765 141.811 59.6127C163.893 44.1672 187.779 31.4784 212.94 21.8286L218.354 96.5021L218.847 103.339L224.204 177.393L225.856 200.173L247.57 500.359L247.765 502.997Z" fill="#CCCCCC"/>
<path d="M509.787 51.9847C510.544 52.4665 511.301 52.9483 512.059 53.453V512.506L509.787 512.299L404.981 502.997L405.176 500.359L426.889 200.173L428.541 177.393L433.898 103.339L434.391 96.5021L440.069 18.1924C464.555 26.6799 487.955 38.0222 509.787 51.9847Z" fill="#CCCCCC"/>
<path d="M509.787 51.9847V518.769C509.787 527.727 503.616 535.011 496.023 535.011H155.576C149.29 535.011 143.956 530.01 142.339 523.185C141.985 521.74 141.808 520.257 141.811 518.769V59.6127C141.432 59.8765 141.054 60.1404 140.675 60.4041C138.76 61.7462 136.867 63.1227 134.986 64.5106V518.769C134.884 525.573 137.425 532.152 142.075 537.122C144.513 539.676 147.596 541.523 150.999 542.467C152.491 542.873 154.03 543.077 155.576 543.075H496.023C497.572 543.077 499.115 542.872 500.611 542.467C509.764 540.001 516.612 530.32 516.612 518.769V56.4697C515.11 55.4488 513.584 54.4394 512.059 53.453C511.301 52.9483 510.544 52.4665 509.787 51.9847Z" fill="#CCCCCC"/>
<path d="M513.203 96.5067H138.399V103.342H513.203V96.5067Z" fill="#CCCCCC"/>
<path d="M253.19 9.31413C255.461 8.75207 257.733 8.22444 260.027 7.7312V193.337H253.19V9.31413Z" fill="#CCCCCC"/>
<path d="M391.571 5.4256C393.854 5.85001 396.137 6.2859 398.408 6.75619V193.337H391.571V5.4256Z" fill="#CCCCCC"/>
<path d="M555.922 500.359H107.066C98.9073 500.359 91.0823 503.6 85.313 509.369C79.5436 515.138 76.3023 522.964 76.3023 531.123C76.3023 539.282 79.5436 547.107 85.313 552.876C91.0823 558.646 98.9073 561.887 107.066 561.887H555.922C560.291 561.888 564.61 560.956 568.59 559.154C572.57 557.352 576.119 554.721 579.001 551.437C580.305 549.953 581.465 548.347 582.465 546.642C583.239 545.335 583.91 543.97 584.472 542.559C586.346 537.892 587.047 532.836 586.512 527.835C585.977 522.834 584.224 518.041 581.406 513.876C578.588 509.71 574.791 506.299 570.348 503.943C565.905 501.586 560.951 500.355 555.922 500.359Z" fill="#CCCCCC"/>
<path d="M513.203 177.391H140.677V200.176H513.203V177.391Z" fill="#CCCCCC"/>
<path d="M323.522 170.556H330.357C332.003 170.556 333.633 170.88 335.153 171.51C336.673 172.14 338.055 173.063 339.219 174.226C340.382 175.39 341.305 176.772 341.935 178.292C342.565 179.812 342.889 181.442 342.889 183.088H310.991C310.991 179.764 312.311 176.577 314.661 174.226C317.011 171.876 320.199 170.556 323.522 170.556H323.522Z" fill="#CCCCCC"/>
<path d="M584.897 545.243C574.932 557.05 564.154 568.146 552.641 578.45H110.359C98.8461 568.146 88.068 557.05 78.1032 545.243H584.897Z" fill="#3F3D56"/>
<path d="M368.527 430.227H294.06C293.659 430.223 293.26 430.285 292.879 430.411C292.07 430.661 291.363 431.163 290.861 431.844C290.36 432.526 290.09 433.35 290.091 434.196V551.839H372.507V434.196C372.507 433.674 372.403 433.157 372.203 432.675C372.003 432.193 371.709 431.755 371.34 431.387C370.97 431.018 370.531 430.726 370.049 430.527C369.566 430.328 369.049 430.226 368.527 430.227ZM340.344 488.269C340.346 490.177 339.717 492.032 338.554 493.545C337.445 495.013 335.902 496.096 334.144 496.641C332.387 497.187 330.502 497.166 328.756 496.584C327.01 496.001 325.492 494.885 324.414 493.393C323.336 491.901 322.753 490.109 322.748 488.269V474.619C322.769 472.299 323.706 470.082 325.353 468.45C327.001 466.818 329.227 465.902 331.546 465.902C333.865 465.902 336.091 466.818 337.738 468.45C339.386 470.082 340.322 472.299 340.344 474.619V488.269Z" fill="#2F2E41"/>
<path d="M289.839 548.076V559.421C289.839 560.009 290.072 560.573 290.486 560.99C290.901 561.407 291.464 561.643 292.053 561.646H370.546C371.133 561.641 371.695 561.405 372.11 560.988C372.524 560.571 372.758 560.008 372.76 559.421V548.076H289.839Z" fill="#3F3D56"/>
<path d="M491.836 246.641H173.527C170.792 246.644 168.17 247.731 166.235 249.664C164.3 251.597 163.21 254.218 163.204 256.953V471.751C163.206 474.488 164.294 477.113 166.23 479.048C168.165 480.984 170.79 482.072 173.527 482.074H491.836C494.573 482.072 497.198 480.984 499.133 479.048C501.069 477.113 502.157 474.488 502.159 471.751V256.953C502.153 254.218 501.063 251.597 499.128 249.664C497.193 247.731 494.571 246.644 491.836 246.641Z" fill="#3F3D56"/>
<path d="M489.175 254.096H176.177C174.712 254.1 173.309 254.684 172.275 255.72C171.241 256.757 170.66 258.161 170.659 259.625V469.101C170.662 470.564 171.244 471.966 172.278 473C173.312 474.034 174.714 474.616 176.177 474.619H489.175C490.637 474.616 492.039 474.034 493.073 473C494.107 471.966 494.69 470.564 494.692 469.101V259.625C494.692 258.161 494.111 256.757 493.077 255.72C492.042 254.684 490.639 254.1 489.175 254.096Z" fill="white"/>
<path d="M431.569 561.462L428.679 547.732C428.559 547.172 428.301 546.651 427.928 546.216C427.556 545.782 427.08 545.447 426.545 545.243C426.158 545.091 425.745 545.013 425.329 545.014H244.886C244.469 545.013 244.057 545.091 243.67 545.243C243.135 545.447 242.659 545.782 242.287 546.216C241.914 546.651 241.656 547.172 241.536 547.732L238.646 561.462C238.541 561.961 238.549 562.476 238.669 562.971C238.789 563.466 239.017 563.928 239.338 564.324C239.659 564.719 240.064 565.038 240.523 565.258C240.983 565.477 241.486 565.591 241.995 565.592H428.208C428.719 565.594 429.224 565.481 429.685 565.261C430.146 565.04 430.551 564.718 430.87 564.319C431.191 563.924 431.421 563.463 431.542 562.969C431.663 562.475 431.672 561.96 431.569 561.462Z" fill="#2F2E41"/>
<path d="M251.383 547.486H246.768C246.459 547.486 246.208 547.737 246.208 548.046V550.368C246.208 550.677 246.459 550.928 246.768 550.928H251.383C251.693 550.928 251.943 550.677 251.943 550.368V548.046C251.943 547.737 251.693 547.486 251.383 547.486Z" fill="#3F3D56"/>
<path d="M262.854 547.486H258.239C257.929 547.486 257.679 547.737 257.679 548.046V550.368C257.679 550.677 257.929 550.928 258.239 550.928H262.854C263.163 550.928 263.414 550.677 263.414 550.368V548.046C263.414 547.737 263.163 547.486 262.854 547.486Z" fill="#3F3D56"/>
<path d="M274.325 547.486H269.709C269.4 547.486 269.149 547.737 269.149 548.046V550.368C269.149 550.677 269.4 550.928 269.709 550.928H274.325C274.634 550.928 274.885 550.677 274.885 550.368V548.046C274.885 547.737 274.634 547.486 274.325 547.486Z" fill="#3F3D56"/>
<path d="M285.795 547.486H281.18C280.871 547.486 280.62 547.737 280.62 548.046V550.368C280.62 550.677 280.871 550.928 281.18 550.928H285.795C286.104 550.928 286.355 550.677 286.355 550.368V548.046C286.355 547.737 286.104 547.486 285.795 547.486Z" fill="#3F3D56"/>
<path d="M297.266 547.486H292.65C292.341 547.486 292.091 547.737 292.091 548.046V550.368C292.091 550.677 292.341 550.928 292.65 550.928H297.266C297.575 550.928 297.826 550.677 297.826 550.368V548.046C297.826 547.737 297.575 547.486 297.266 547.486Z" fill="#3F3D56"/>
<path d="M308.736 547.486H304.121C303.812 547.486 303.561 547.737 303.561 548.046V550.368C303.561 550.677 303.812 550.928 304.121 550.928H308.736C309.046 550.928 309.296 550.677 309.296 550.368V548.046C309.296 547.737 309.046 547.486 308.736 547.486Z" fill="#3F3D56"/>
<path d="M320.207 547.486H315.592C315.282 547.486 315.032 547.737 315.032 548.046V550.368C315.032 550.677 315.282 550.928 315.592 550.928H320.207C320.516 550.928 320.767 550.677 320.767 550.368V548.046C320.767 547.737 320.516 547.486 320.207 547.486Z" fill="#3F3D56"/>
<path d="M331.678 547.486H327.062C326.753 547.486 326.502 547.737 326.502 548.046V550.368C326.502 550.677 326.753 550.928 327.062 550.928H331.678C331.987 550.928 332.238 550.677 332.238 550.368V548.046C332.238 547.737 331.987 547.486 331.678 547.486Z" fill="#3F3D56"/>
<path d="M343.148 547.486H338.533C338.224 547.486 337.973 547.737 337.973 548.046V550.368C337.973 550.677 338.224 550.928 338.533 550.928H343.148C343.457 550.928 343.708 550.677 343.708 550.368V548.046C343.708 547.737 343.457 547.486 343.148 547.486Z" fill="#3F3D56"/>
<path d="M354.619 547.486H350.003C349.694 547.486 349.443 547.737 349.443 548.046V550.368C349.443 550.677 349.694 550.928 350.003 550.928H354.619C354.928 550.928 355.179 550.677 355.179 550.368V548.046C355.179 547.737 354.928 547.486 354.619 547.486Z" fill="#3F3D56"/>
<path d="M366.089 547.486H361.474C361.165 547.486 360.914 547.737 360.914 548.046V550.368C360.914 550.677 361.165 550.928 361.474 550.928H366.089C366.399 550.928 366.649 550.677 366.649 550.368V548.046C366.649 547.737 366.399 547.486 366.089 547.486Z" fill="#3F3D56"/>
<path d="M377.56 547.486H372.945C372.635 547.486 372.385 547.737 372.385 548.046V550.368C372.385 550.677 372.635 550.928 372.945 550.928H377.56C377.869 550.928 378.12 550.677 378.12 550.368V548.046C378.12 547.737 377.869 547.486 377.56 547.486Z" fill="#3F3D56"/>
<path d="M389.031 547.486H384.415C384.106 547.486 383.855 547.737 383.855 548.046V550.368C383.855 550.677 384.106 550.928 384.415 550.928H389.031C389.34 550.928 389.591 550.677 389.591 550.368V548.046C389.591 547.737 389.34 547.486 389.031 547.486Z" fill="#3F3D56"/>
<path d="M400.501 547.486H395.886C395.577 547.486 395.326 547.737 395.326 548.046V550.368C395.326 550.677 395.577 550.928 395.886 550.928H400.501C400.81 550.928 401.061 550.677 401.061 550.368V548.046C401.061 547.737 400.81 547.486 400.501 547.486Z" fill="#3F3D56"/>
<path d="M411.972 547.486H407.356C407.047 547.486 406.796 547.737 406.796 548.046V550.368C406.796 550.677 407.047 550.928 407.356 550.928H411.972C412.281 550.928 412.532 550.677 412.532 550.368V548.046C412.532 547.737 412.281 547.486 411.972 547.486Z" fill="#3F3D56"/>
<path d="M423.442 547.486H418.827C418.518 547.486 418.267 547.737 418.267 548.046V550.368C418.267 550.677 418.518 550.928 418.827 550.928H423.442C423.752 550.928 424.002 550.677 424.002 550.368V548.046C424.002 547.737 423.752 547.486 423.442 547.486Z" fill="#3F3D56"/>
<path d="M251.248 553.222H246.633C246.323 553.222 246.073 553.472 246.073 553.782V556.103C246.073 556.412 246.323 556.663 246.633 556.663H251.248C251.557 556.663 251.808 556.412 251.808 556.103V553.782C251.808 553.472 251.557 553.222 251.248 553.222Z" fill="#3F3D56"/>
<path d="M262.719 553.222H258.103C257.794 553.222 257.543 553.472 257.543 553.782V556.103C257.543 556.412 257.794 556.663 258.103 556.663H262.719C263.028 556.663 263.279 556.412 263.279 556.103V553.782C263.279 553.472 263.028 553.222 262.719 553.222Z" fill="#3F3D56"/>
<path d="M274.189 553.222H269.574C269.265 553.222 269.014 553.472 269.014 553.782V556.103C269.014 556.412 269.265 556.663 269.574 556.663H274.189C274.498 556.663 274.749 556.412 274.749 556.103V553.782C274.749 553.472 274.498 553.222 274.189 553.222Z" fill="#3F3D56"/>
<path d="M285.66 553.222H281.044C280.735 553.222 280.484 553.472 280.484 553.782V556.103C280.484 556.412 280.735 556.663 281.044 556.663H285.66C285.969 556.663 286.22 556.412 286.22 556.103V553.782C286.22 553.472 285.969 553.222 285.66 553.222Z" fill="#3F3D56"/>
<path d="M297.13 553.222H292.515C292.206 553.222 291.955 553.472 291.955 553.782V556.103C291.955 556.412 292.206 556.663 292.515 556.663H297.13C297.44 556.663 297.69 556.412 297.69 556.103V553.782C297.69 553.472 297.44 553.222 297.13 553.222Z" fill="#3F3D56"/>
<path d="M308.601 553.222H303.986C303.676 553.222 303.426 553.472 303.426 553.782V556.103C303.426 556.412 303.676 556.663 303.986 556.663H308.601C308.91 556.663 309.161 556.412 309.161 556.103V553.782C309.161 553.472 308.91 553.222 308.601 553.222Z" fill="#3F3D56"/>
<path d="M320.071 553.222H315.456C315.147 553.222 314.896 553.472 314.896 553.782V556.103C314.896 556.412 315.147 556.663 315.456 556.663H320.071C320.381 556.663 320.631 556.412 320.631 556.103V553.782C320.631 553.472 320.381 553.222 320.071 553.222Z" fill="#3F3D56"/>
<path d="M331.542 553.222H326.927C326.617 553.222 326.367 553.472 326.367 553.782V556.103C326.367 556.412 326.617 556.663 326.927 556.663H331.542C331.851 556.663 332.102 556.412 332.102 556.103V553.782C332.102 553.472 331.851 553.222 331.542 553.222Z" fill="#3F3D56"/>
<path d="M343.013 553.222H338.397C338.088 553.222 337.837 553.472 337.837 553.782V556.103C337.837 556.412 338.088 556.663 338.397 556.663H343.013C343.322 556.663 343.573 556.412 343.573 556.103V553.782C343.573 553.472 343.322 553.222 343.013 553.222Z" fill="#3F3D56"/>
<path d="M354.483 553.222H349.868C349.559 553.222 349.308 553.472 349.308 553.782V556.103C349.308 556.412 349.559 556.663 349.868 556.663H354.483C354.792 556.663 355.043 556.412 355.043 556.103V553.782C355.043 553.472 354.792 553.222 354.483 553.222Z" fill="#3F3D56"/>
<path d="M365.954 553.222H361.338C361.029 553.222 360.779 553.472 360.779 553.782V556.103C360.779 556.412 361.029 556.663 361.338 556.663H365.954C366.263 556.663 366.514 556.412 366.514 556.103V553.782C366.514 553.472 366.263 553.222 365.954 553.222Z" fill="#3F3D56"/>
<path d="M377.424 553.222H372.809C372.5 553.222 372.249 553.472 372.249 553.782V556.103C372.249 556.412 372.5 556.663 372.809 556.663H377.424C377.734 556.663 377.984 556.412 377.984 556.103V553.782C377.984 553.472 377.734 553.222 377.424 553.222Z" fill="#3F3D56"/>
<path d="M388.895 553.222H384.28C383.97 553.222 383.72 553.472 383.72 553.782V556.103C383.72 556.412 383.97 556.663 384.28 556.663H388.895C389.204 556.663 389.455 556.412 389.455 556.103V553.782C389.455 553.472 389.204 553.222 388.895 553.222Z" fill="#3F3D56"/>
<path d="M400.366 553.222H395.75C395.441 553.222 395.19 553.472 395.19 553.782V556.103C395.19 556.412 395.441 556.663 395.75 556.663H400.366C400.675 556.663 400.926 556.412 400.926 556.103V553.782C400.926 553.472 400.675 553.222 400.366 553.222Z" fill="#3F3D56"/>
<path d="M411.836 553.222H407.221C406.912 553.222 406.661 553.472 406.661 553.782V556.103C406.661 556.412 406.912 556.663 407.221 556.663H411.836C412.145 556.663 412.396 556.412 412.396 556.103V553.782C412.396 553.472 412.145 553.222 411.836 553.222Z" fill="#3F3D56"/>
<path d="M423.307 553.222H418.691C418.382 553.222 418.131 553.472 418.131 553.782V556.103C418.131 556.412 418.382 556.663 418.691 556.663H423.307C423.616 556.663 423.867 556.412 423.867 556.103V553.782C423.867 553.472 423.616 553.222 423.307 553.222Z" fill="#3F3D56"/>
<path d="M346.454 560.104H301.691C301.382 560.104 301.131 560.355 301.131 560.664V562.985C301.131 563.294 301.382 563.545 301.691 563.545H346.454C346.763 563.545 347.014 563.294 347.014 562.985V560.664C347.014 560.355 346.763 560.104 346.454 560.104Z" fill="#3F3D56"/>
<path d="M473.446 282.953H180.575C180.271 282.946 179.981 282.82 179.768 282.603C179.555 282.385 179.436 282.093 179.436 281.788C179.436 281.483 179.555 281.191 179.768 280.973C179.981 280.756 180.271 280.63 180.575 280.623H473.446C473.751 280.63 474.041 280.756 474.254 280.973C474.466 281.191 474.586 281.483 474.586 281.788C474.586 282.093 474.466 282.385 474.254 282.603C474.041 282.82 473.751 282.946 473.446 282.953Z" fill="#3F3D56"/>
<path d="M200.512 274.677C204.281 274.677 207.337 271.553 207.337 267.699C207.337 263.846 204.281 260.722 200.512 260.722C196.742 260.722 193.686 263.846 193.686 267.699C193.686 271.553 196.742 274.677 200.512 274.677Z" fill="#3F3D56"/>
<path d="M224.091 274.677C227.86 274.677 230.916 271.553 230.916 267.699C230.916 263.846 227.86 260.722 224.091 260.722C220.321 260.722 217.265 263.846 217.265 267.699C217.265 271.553 220.321 274.677 224.091 274.677Z" fill="#3F3D56"/>
<path d="M247.669 274.677C251.439 274.677 254.495 271.553 254.495 267.699C254.495 263.846 251.439 260.722 247.669 260.722C243.9 260.722 240.844 263.846 240.844 267.699C240.844 271.553 243.9 274.677 247.669 274.677Z" fill="#3F3D56"/>
<path d="M459.248 262.447H442.501C442.17 262.455 441.855 262.592 441.624 262.829C441.392 263.065 441.263 263.383 441.263 263.715C441.263 264.046 441.392 264.364 441.624 264.601C441.855 264.837 442.17 264.974 442.501 264.982H459.248C459.581 264.977 459.899 264.842 460.133 264.605C460.367 264.367 460.498 264.048 460.498 263.715C460.498 263.381 460.367 263.062 460.133 262.825C459.899 262.587 459.581 262.452 459.248 262.447Z" fill="#3F3D56"/>
<path d="M459.248 267.207H442.501C442.17 267.215 441.854 267.351 441.623 267.588C441.391 267.825 441.261 268.143 441.261 268.475C441.261 268.806 441.391 269.124 441.623 269.361C441.854 269.598 442.17 269.735 442.501 269.742H459.248C459.581 269.738 459.9 269.603 460.134 269.366C460.369 269.129 460.5 268.808 460.5 268.475C460.5 268.141 460.369 267.821 460.134 267.584C459.9 267.347 459.581 267.211 459.248 267.207Z" fill="#3F3D56"/>
<path d="M459.248 271.968H442.501C442.17 271.975 441.855 272.112 441.624 272.349C441.392 272.586 441.263 272.904 441.263 273.235C441.263 273.566 441.392 273.884 441.624 274.121C441.855 274.358 442.17 274.495 442.501 274.503H459.248C459.581 274.498 459.899 274.362 460.133 274.125C460.367 273.888 460.498 273.568 460.498 273.235C460.498 272.902 460.367 272.582 460.133 272.345C459.899 272.108 459.581 271.972 459.248 271.968Z" fill="#3F3D56"/>
<path d="M205.829 310.019H199.811C197.986 310.019 196.507 311.498 196.507 313.323C196.507 315.147 197.986 316.626 199.811 316.626H205.829C207.653 316.626 209.132 315.147 209.132 313.323C209.132 311.498 207.653 310.019 205.829 310.019Z" fill="#E6E6E6"/>
<path d="M274.652 310.019H268.634C266.81 310.019 265.331 311.498 265.331 313.323C265.331 315.147 266.81 316.626 268.634 316.626H274.652C276.477 316.626 277.956 315.147 277.956 313.323C277.956 311.498 276.477 310.019 274.652 310.019Z" fill="#E6E6E6"/>
<path d="M294.152 310.019H288.134C286.31 310.019 284.831 311.498 284.831 313.323C284.831 315.147 286.31 316.626 288.134 316.626H294.152C295.977 316.626 297.456 315.147 297.456 313.323C297.456 311.498 295.977 310.019 294.152 310.019Z" fill="#E6E6E6"/>
<path d="M255.932 309.469H218.531C216.707 309.469 215.228 310.948 215.228 312.772C215.228 314.596 216.707 316.076 218.531 316.076H255.932C257.756 316.076 259.235 314.596 259.235 312.772C259.235 310.948 257.756 309.469 255.932 309.469Z" fill="#E6E6E6"/>
<path d="M347.697 309.469H310.296C308.471 309.469 306.992 310.948 306.992 312.772C306.992 314.596 308.471 316.076 310.296 316.076H347.697C349.521 316.076 351 314.596 351 312.772C351 310.948 349.521 309.469 347.697 309.469Z" fill="#E6E6E6"/>
<path d="M224.181 324.931H218.164C216.339 324.931 214.86 326.41 214.86 328.235C214.86 330.059 216.339 331.538 218.164 331.538H224.181C226.006 331.538 227.485 330.059 227.485 328.235C227.485 326.41 226.006 324.931 224.181 324.931Z" fill="#E6E6E6"/>
<path d="M293.005 324.931H286.987C285.163 324.931 283.684 326.41 283.684 328.235C283.684 330.059 285.163 331.538 286.987 331.538H293.005C294.829 331.538 296.308 330.059 296.308 328.235C296.308 326.41 294.829 324.931 293.005 324.931Z" fill="#E6E6E6"/>
<path d="M312.505 324.931H306.487C304.663 324.931 303.184 326.41 303.184 328.235C303.184 330.059 304.663 331.538 306.487 331.538H312.505C314.329 331.538 315.808 330.059 315.808 328.235C315.808 326.41 314.329 324.931 312.505 324.931Z" fill="#E6E6E6"/>
<path d="M274.285 324.38H236.884C235.06 324.38 233.581 325.859 233.581 327.684C233.581 329.508 235.06 330.987 236.884 330.987H274.285C276.109 330.987 277.588 329.508 277.588 327.684C277.588 325.859 276.109 324.38 274.285 324.38Z" fill="#E6E6E6"/>
<path d="M366.049 324.38H328.649C326.824 324.38 325.345 325.859 325.345 327.684C325.345 329.508 326.824 330.987 328.649 330.987H366.049C367.874 330.987 369.353 329.508 369.353 327.684C369.353 325.859 367.874 324.38 366.049 324.38Z" fill="#E6E6E6"/>
<path d="M242.534 339.843H236.517C234.692 339.843 233.213 341.322 233.213 343.146C233.213 344.971 234.692 346.45 236.517 346.45H242.534C244.359 346.45 245.838 344.971 245.838 343.146C245.838 341.322 244.359 339.843 242.534 339.843Z" fill="#E6E6E6"/>
<path d="M311.358 339.843H305.34C303.516 339.843 302.037 341.322 302.037 343.146C302.037 344.971 303.516 346.45 305.34 346.45H311.358C313.182 346.45 314.661 344.971 314.661 343.146C314.661 341.322 313.182 339.843 311.358 339.843Z" fill="#E6E6E6"/>
<path d="M330.858 339.843H324.84C323.016 339.843 321.537 341.322 321.537 343.146C321.537 344.971 323.016 346.45 324.84 346.45H330.858C332.682 346.45 334.161 344.971 334.161 343.146C334.161 341.322 332.682 339.843 330.858 339.843Z" fill="#E6E6E6"/>
<path d="M292.638 339.292H255.237C253.413 339.292 251.933 340.771 251.933 342.596C251.933 344.42 253.413 345.899 255.237 345.899H292.638C294.462 345.899 295.941 344.42 295.941 342.596C295.941 340.771 294.462 339.292 292.638 339.292Z" fill="#E6E6E6"/>
<path d="M384.402 339.292H347.002C345.177 339.292 343.698 340.771 343.698 342.596C343.698 344.42 345.177 345.899 347.002 345.899H384.402C386.227 345.899 387.706 344.42 387.706 342.596C387.706 340.771 386.227 339.292 384.402 339.292Z" fill="#E6E6E6"/>
<path d="M260.887 354.755H254.87C253.045 354.755 251.566 356.234 251.566 358.058C251.566 359.883 253.045 361.362 254.87 361.362H260.887C262.712 361.362 264.191 359.883 264.191 358.058C264.191 356.234 262.712 354.755 260.887 354.755Z" fill="#E6E6E6"/>
<path d="M329.711 354.755H323.693C321.869 354.755 320.39 356.234 320.39 358.058C320.39 359.883 321.869 361.362 323.693 361.362H329.711C331.535 361.362 333.014 359.883 333.014 358.058C333.014 356.234 331.535 354.755 329.711 354.755Z" fill="#E6E6E6"/>
<path d="M349.211 354.755H343.193C341.369 354.755 339.89 356.234 339.89 358.058C339.89 359.883 341.369 361.362 343.193 361.362H349.211C351.035 361.362 352.514 359.883 352.514 358.058C352.514 356.234 351.035 354.755 349.211 354.755Z" fill="#E6E6E6"/>
<path d="M310.991 354.204H273.59C271.765 354.204 270.286 355.683 270.286 357.507C270.286 359.332 271.765 360.811 273.59 360.811H310.991C312.815 360.811 314.294 359.332 314.294 357.507C314.294 355.683 312.815 354.204 310.991 354.204Z" fill="#E6E6E6"/>
<path d="M274.652 414.05H268.634C266.81 414.05 265.331 415.529 265.331 417.354C265.331 419.178 266.81 420.657 268.634 420.657H274.652C276.477 420.657 277.956 419.178 277.956 417.354C277.956 415.529 276.477 414.05 274.652 414.05Z" fill="#E6E6E6"/>
<path d="M294.152 414.05H288.134C286.31 414.05 284.831 415.529 284.831 417.354C284.831 419.178 286.31 420.657 288.134 420.657H294.152C295.977 420.657 297.456 419.178 297.456 417.354C297.456 415.529 295.977 414.05 294.152 414.05Z" fill="#E6E6E6"/>
<path d="M347.697 414.601H310.296C308.471 414.601 306.992 416.08 306.992 417.904C306.992 419.729 308.471 421.208 310.296 421.208H347.697C349.521 421.208 351 419.729 351 417.904C351 416.08 349.521 414.601 347.697 414.601Z" fill="#E6E6E6"/>
<path d="M205.829 414.05H199.811C197.986 414.05 196.507 415.529 196.507 417.354C196.507 419.178 197.986 420.657 199.811 420.657H205.829C207.653 420.657 209.132 419.178 209.132 417.354C209.132 415.529 207.653 414.05 205.829 414.05Z" fill="#E6E6E6"/>
<path d="M255.932 414.601H218.531C216.707 414.601 215.228 416.08 215.228 417.904C215.228 419.729 216.707 421.208 218.531 421.208H255.932C257.756 421.208 259.235 419.729 259.235 417.904C259.235 416.08 257.756 414.601 255.932 414.601Z" fill="#E6E6E6"/>
<path d="M224.181 399.138H218.164C216.339 399.138 214.86 400.617 214.86 402.442C214.86 404.266 216.339 405.745 218.164 405.745H224.181C226.006 405.745 227.485 404.266 227.485 402.442C227.485 400.617 226.006 399.138 224.181 399.138Z" fill="#E6E6E6"/>
<path d="M293.005 399.138H286.987C285.163 399.138 283.684 400.617 283.684 402.442C283.684 404.266 285.163 405.745 286.987 405.745H293.005C294.829 405.745 296.308 404.266 296.308 402.442C296.308 400.617 294.829 399.138 293.005 399.138Z" fill="#E6E6E6"/>
<path d="M312.505 399.138H306.487C304.663 399.138 303.184 400.617 303.184 402.442C303.184 404.266 304.663 405.745 306.487 405.745H312.505C314.329 405.745 315.808 404.266 315.808 402.442C315.808 400.617 314.329 399.138 312.505 399.138Z" fill="#E6E6E6"/>
<path d="M274.285 399.689H236.884C235.06 399.689 233.581 401.168 233.581 402.993C233.581 404.817 235.06 406.296 236.884 406.296H274.285C276.109 406.296 277.588 404.817 277.588 402.993C277.588 401.168 276.109 399.689 274.285 399.689Z" fill="#E6E6E6"/>
<path d="M242.534 384.227H236.517C234.692 384.227 233.213 385.706 233.213 387.53C233.213 389.355 234.692 390.834 236.517 390.834H242.534C244.359 390.834 245.838 389.355 245.838 387.53C245.838 385.706 244.359 384.227 242.534 384.227Z" fill="#E6E6E6"/>
<path d="M311.358 384.227H305.34C303.516 384.227 302.037 385.706 302.037 387.53C302.037 389.355 303.516 390.834 305.34 390.834H311.358C313.182 390.834 314.661 389.355 314.661 387.53C314.661 385.706 313.182 384.227 311.358 384.227Z" fill="#E6E6E6"/>
<path d="M330.858 384.227H324.84C323.016 384.227 321.537 385.706 321.537 387.53C321.537 389.355 323.016 390.834 324.84 390.834H330.858C332.682 390.834 334.161 389.355 334.161 387.53C334.161 385.706 332.682 384.227 330.858 384.227Z" fill="#E6E6E6"/>
<path d="M292.638 384.777H255.237C253.413 384.777 251.933 386.256 251.933 388.081C251.933 389.905 253.413 391.384 255.237 391.384H292.638C294.462 391.384 295.941 389.905 295.941 388.081C295.941 386.256 294.462 384.777 292.638 384.777Z" fill="#E6E6E6"/>
<path d="M260.887 369.315H254.87C253.045 369.315 251.566 370.794 251.566 372.618C251.566 374.443 253.045 375.922 254.87 375.922H260.887C262.712 375.922 264.191 374.443 264.191 372.618C264.191 370.794 262.712 369.315 260.887 369.315Z" fill="#E6E6E6"/>
<path d="M329.711 369.315H323.693C321.869 369.315 320.39 370.794 320.39 372.618C320.39 374.443 321.869 375.922 323.693 375.922H329.711C331.535 375.922 333.014 374.443 333.014 372.618C333.014 370.794 331.535 369.315 329.711 369.315Z" fill="#E6E6E6"/>
<path d="M349.211 369.315H343.193C341.369 369.315 339.89 370.794 339.89 372.618C339.89 374.443 341.369 375.922 343.193 375.922H349.211C351.035 375.922 352.514 374.443 352.514 372.618C352.514 370.794 351.035 369.315 349.211 369.315Z" fill="#E6E6E6"/>
<path d="M310.991 369.866H273.59C271.765 369.866 270.286 371.345 270.286 373.169C270.286 374.994 271.765 376.473 273.59 376.473H310.991C312.815 376.473 314.294 374.994 314.294 373.169C314.294 371.345 312.815 369.866 310.991 369.866Z" fill="#E6E6E6"/>
<path d="M476.959 629.472C476.259 629.827 475.548 630.183 474.848 630.527C456.724 639.589 442.226 644.739 422.393 650.382C420.718 631.685 419.101 598.822 417.529 578.45C417.116 573.162 416.704 568.723 416.302 565.592C416.201 563.927 415.861 562.285 415.293 560.717L415.361 565.592L415.534 578.45L416.531 651.988C391.861 658.516 366.519 662.169 341.009 662.874C339.679 662.908 338.371 662.931 337.109 662.954C336.662 662.966 336.226 662.977 335.79 662.977C334.356 662.989 332.934 663 331.5 663C304.618 663.02 277.833 659.773 251.734 653.33C252.296 634.828 252.858 602.332 253.397 578.45C253.511 573.782 253.615 569.434 253.729 565.592C253.947 557.379 254.177 551.46 254.395 549.476C254.202 549.827 254.051 550.201 253.947 550.588C252.885 555.534 252.161 560.547 251.779 565.592C251.378 569.434 250.976 573.782 250.575 578.45C248.441 603.261 246.216 636.996 243.922 651.3C230.267 647.572 216.868 642.963 203.809 637.501C196.927 634.633 190.167 631.54 183.529 628.221C184.791 619.962 186.11 610.706 187.464 601.105C188.519 593.66 189.609 586.009 190.721 578.45C192.442 566.773 194.209 555.326 195.998 545.243C198.613 530.515 201.297 518.677 203.959 513.24C206.482 508.078 209.006 502.985 211.449 498.11C212.298 496.401 213.146 494.715 213.972 493.075C214.167 492.685 214.362 492.306 214.557 491.928C216.312 488.475 218.01 485.172 219.627 482.074C221.015 479.425 222.334 476.924 223.585 474.619C226.613 469.021 229.182 464.559 231.087 461.737C239.047 449.662 250.898 440.672 264.672 436.261L265.016 436.169L265.257 436.272L288.715 429.069L292.144 428.014L294.45 427.302L302.571 421.12L306.987 417.759L311.128 414.604L319.226 408.445L369.364 411.53L379.126 435.034L400.989 443.029L401.367 442.856L401.7 442.719L402.044 442.811C415.816 447.226 427.666 456.215 435.63 468.287C436.708 469.904 438.016 472.038 439.496 474.619C440.757 476.809 442.134 479.31 443.625 482.074C445.747 486.009 448.064 490.448 450.519 495.254C451.058 496.309 451.609 497.388 452.159 498.477C453.18 500.496 454.216 502.557 455.268 504.66C457.711 509.535 460.234 514.628 462.758 519.801C464.949 524.286 467.163 533.508 469.342 545.243C471.143 554.993 472.932 566.486 474.664 578.45C476.936 593.959 474.515 612.529 476.569 626.799C476.695 627.705 476.832 628.588 476.959 629.472Z" fill="#3F3D56"/>
<path d="M332.205 389.684C364.411 389.684 390.518 363.577 390.518 331.372C390.518 299.167 364.411 273.059 332.205 273.059C300 273.059 273.893 299.167 273.893 331.372C273.893 363.577 300 389.684 332.205 389.684Z" fill="#A0616A"/>
<path d="M428.369 254.096C427.217 251.406 425.683 248.895 423.815 246.641C414.96 235.824 398.855 231.064 382.326 243.865C379.144 243.154 375.828 243.344 372.748 244.415C371.294 244.942 369.932 245.693 368.711 246.641C366.208 248.593 364.255 251.162 363.044 254.096C362.397 255.646 361.972 257.28 361.782 258.949C357.696 256.826 353.372 255.197 348.901 254.096C337.93 251.368 326.458 251.368 315.487 254.096C311.971 254.986 308.586 256.328 305.416 258.088C300.048 261.185 296.962 265.097 296.411 269.444C288.669 269.88 280.616 273.952 274.617 280.628C273.941 281.374 273.287 282.154 272.679 282.956C267.634 289.558 264.923 297.647 264.971 305.955V307.412H266.427C270.419 307.408 274.373 308.179 278.07 309.683C280.466 310.645 282.735 311.897 284.826 313.411C286.194 314.382 287.487 315.455 288.692 316.623C291.486 319.327 293.853 322.441 295.712 325.856C300.477 334.488 302.13 344.495 300.392 354.2C299.993 356.447 299.41 358.657 298.648 360.807C297.565 363.876 296.137 366.812 294.393 369.559C294.324 369.663 294.266 369.766 294.198 369.869C293.429 371.097 292.695 372.347 292.007 373.609C291.491 374.549 291.009 375.513 290.561 376.476C289.254 379.158 288.15 381.934 287.258 384.781C285.662 389.816 284.721 395.036 284.459 400.312C284.379 401.711 284.356 403.111 284.402 404.51C284.47 408.118 284.865 411.711 285.583 415.247C285.686 415.729 285.79 416.199 285.893 416.681L286.73 420.34L288.715 429.069L290.091 435.079L291.364 440.654L293.246 437.959C293.888 437.041 295.505 434.219 297.673 430.227C299.107 427.624 300.77 424.515 302.571 421.12C305.083 416.36 307.836 411.049 310.532 405.749C311.621 403.604 312.7 401.471 313.744 399.383C315.717 395.426 317.575 391.606 319.169 388.211C320.637 385.079 321.888 382.303 322.817 380.078C323.104 381.535 323.344 383.014 323.528 384.506C323.734 386.02 323.884 387.557 323.964 389.094C323.987 389.323 323.998 389.564 324.01 389.794L324.056 390.734L324.067 391.01L325.283 391.17C332.296 391.921 339.365 391.975 346.389 391.331H346.4C355.705 390.63 364.832 388.418 373.425 384.781C378.305 382.664 382.862 379.868 386.96 376.476C388.875 374.891 390.663 373.157 392.306 371.292C392.719 370.821 393.12 370.351 393.51 369.869C395.78 367.079 397.724 364.039 399.303 360.808C400.36 358.675 401.257 356.466 401.987 354.2C406.391 340.86 406.139 324.216 401.23 304.441C402.556 304.186 403.826 303.696 404.981 302.996C408.582 300.828 411.083 296.526 411.863 291.273L413.102 291.605C417.493 289.56 421.406 286.613 424.584 282.957C425.213 282.212 425.803 281.435 426.35 280.628C431.959 272.369 432.005 262.459 428.369 254.096Z" fill="#2F2E41"/>
<path opacity="0.2" d="M236.661 545.192L246.408 507.578L255.014 540.035L236.661 545.192Z" fill="black"/>
<path d="M496.023 520.684C492.536 568.723 496.149 589.875 476.901 629.483C459.389 638.054 441.147 645.049 422.393 650.382C420.443 650.933 418.489 651.468 416.531 651.988C391.861 658.516 366.519 662.168 341.009 662.874C339.679 662.908 338.371 662.931 337.109 662.954C336.662 662.966 336.226 662.977 335.79 662.977C334.356 662.988 332.934 663 331.5 663C304.618 663.02 277.833 659.773 251.734 653.33C249.118 652.688 246.514 652.011 243.922 651.3C230.267 647.572 216.868 642.963 203.809 637.501C196.927 634.633 190.167 631.54 183.529 628.221C182.027 627.464 180.524 626.707 179.044 625.927C171.439 612.552 167.115 596.287 167.023 576.741C172.288 543.063 484.391 491.641 496.023 520.684Z" fill="#2F2E41"/>
<path opacity="0.2" d="M496.014 528.911C496.192 525.937 496.391 522.865 496.623 519.666C484.992 490.623 172.889 542.045 167.624 575.723C167.638 578.811 167.77 581.807 167.992 584.733C180.742 551.493 477.245 502.619 496.014 528.911Z" fill="black"/>
<path d="M187.08 392.468C187.156 391.428 187.009 390.384 186.647 389.406C186.286 388.428 185.719 387.538 184.985 386.798C184.251 386.057 183.367 385.482 182.392 385.111C181.418 384.741 180.375 384.584 179.334 384.65C178.947 384.665 178.561 384.713 178.181 384.794L132.572 395.098C131.553 395.345 130.597 395.803 129.765 396.442C128.934 397.081 128.245 397.887 127.744 398.809C127.076 398.834 126.411 398.93 125.763 399.097C124.344 399.419 123.002 400.017 121.813 400.857C120.625 401.697 119.614 402.764 118.838 403.995C118.062 405.226 117.536 406.598 117.29 408.032C117.044 409.466 117.083 410.935 117.405 412.354C117.726 413.774 118.325 415.116 119.165 416.304C120.005 417.492 121.072 418.503 122.303 419.279C124.789 420.847 127.796 421.362 130.662 420.713C132.294 420.334 133.82 419.596 135.13 418.551L150.585 462.071C151.357 463.435 152.55 464.513 153.985 465.142C155.42 465.772 157.021 465.921 158.547 465.566L188.197 458.865C189.712 458.51 191.075 457.684 192.091 456.506C193.107 455.328 193.724 453.858 193.853 452.308L187.08 392.468ZM129.978 417.614C127.931 418.076 125.784 417.707 124.008 416.589C122.233 415.47 120.973 413.693 120.506 411.647C120.039 409.601 120.402 407.454 121.515 405.675C122.629 403.896 124.403 402.632 126.447 402.159C126.591 402.123 126.736 402.159 126.88 402.123C126.869 403.436 127.204 404.728 127.853 405.87L133.509 415.741C132.524 416.675 131.303 417.323 129.978 417.614Z" fill="#2F2E41"/>
<path d="M179.334 384.65C179.767 390.414 169.895 397.043 156.674 399.673C144.533 402.159 133.653 400.43 130.59 395.891C131.206 395.525 131.874 395.258 132.572 395.098L178.182 384.794C178.561 384.713 178.947 384.665 179.334 384.65Z" fill="#3F3D56"/>
<path d="M147.791 530.979L173.409 518.17L152.061 460.53L146.434 431.461C145.703 427.685 143.994 424.166 141.477 421.257C138.96 418.348 135.724 416.15 132.092 414.884C128.46 413.617 124.559 413.326 120.779 414.04C116.999 414.753 113.472 416.446 110.552 418.95C106.224 422.66 103.506 427.906 102.973 433.581C102.439 439.256 104.132 444.917 107.693 449.368L128.577 475.474L147.791 530.979Z" fill="#A0616A"/>
<path d="M173.409 507.496L139.252 524.575L165.173 605.797C167.035 611.63 170.372 616.882 174.861 621.046C179.349 625.209 184.838 628.142 190.794 629.56C198.138 631.309 205.847 630.673 212.806 627.745C219.764 624.817 225.609 619.749 229.493 613.275L298.23 495.456C303.101 487.338 304.605 477.636 302.42 468.424C300.234 459.212 294.534 451.219 286.535 446.153C282.233 443.429 277.406 441.641 272.367 440.905C267.328 440.17 262.191 440.504 257.29 441.885C252.389 443.266 247.833 445.664 243.92 448.922C240.007 452.18 236.824 456.226 234.578 460.796L192.623 550.193L173.409 507.496Z" fill="#3F3D56"/>
<path d="M162.844 434.095C162.781 434.095 162.718 434.084 162.658 434.063L155.2 431.496C155.11 431.465 155.029 431.412 154.965 431.342C154.9 431.272 154.854 431.187 154.831 431.095C154.807 431.002 154.807 430.906 154.83 430.813C154.854 430.721 154.9 430.636 154.964 430.566L160.511 424.527C160.562 424.471 160.623 424.426 160.691 424.394C160.76 424.362 160.834 424.344 160.909 424.34C160.985 424.337 161.06 424.348 161.131 424.374C161.202 424.4 161.267 424.44 161.323 424.491C161.378 424.542 161.423 424.603 161.455 424.672C161.487 424.74 161.505 424.814 161.508 424.89C161.511 424.965 161.499 425.04 161.473 425.111C161.447 425.182 161.407 425.247 161.356 425.302L156.402 430.696L163.031 432.979C163.159 433.023 163.268 433.111 163.337 433.228C163.406 433.344 163.432 433.482 163.41 433.616C163.388 433.75 163.318 433.871 163.215 433.959C163.111 434.047 162.98 434.095 162.844 434.095Z" fill="white"/>
<path d="M173.066 432.002C172.952 432.002 172.841 431.968 172.746 431.904C172.651 431.84 172.578 431.75 172.535 431.644C172.492 431.538 172.482 431.421 172.505 431.31C172.529 431.198 172.586 431.096 172.668 431.016L177.708 426.142L170.937 423.352C170.867 423.324 170.804 423.281 170.75 423.228C170.697 423.175 170.654 423.112 170.625 423.043C170.596 422.973 170.581 422.898 170.581 422.823C170.581 422.748 170.596 422.673 170.624 422.603C170.653 422.534 170.695 422.47 170.749 422.417C170.802 422.364 170.865 422.321 170.935 422.292C171.004 422.264 171.079 422.249 171.154 422.249C171.23 422.249 171.304 422.264 171.374 422.292L178.955 425.417C179.043 425.453 179.121 425.51 179.181 425.584C179.241 425.658 179.282 425.745 179.3 425.839C179.318 425.932 179.312 426.029 179.284 426.12C179.255 426.21 179.204 426.292 179.136 426.359L173.465 431.841C173.358 431.944 173.215 432.002 173.066 432.002Z" fill="white"/>
<path d="M164.41 437.603C164.353 437.603 164.296 437.594 164.241 437.577C164.169 437.555 164.102 437.519 164.044 437.471C163.986 437.423 163.938 437.364 163.903 437.297C163.867 437.231 163.846 437.158 163.838 437.083C163.831 437.008 163.839 436.932 163.861 436.86L169.155 419.654C169.2 419.509 169.301 419.388 169.435 419.318C169.57 419.247 169.727 419.232 169.872 419.277C170.017 419.322 170.138 419.422 170.209 419.556C170.281 419.691 170.296 419.847 170.251 419.993L164.958 437.199C164.922 437.316 164.849 437.418 164.75 437.491C164.652 437.564 164.532 437.603 164.41 437.603Z" fill="white"/>
</g>
<defs>
<clipPath id="clip0_10_481">
<rect width="663" height="663" fill="white"/>
</clipPath>
</defs>
</svg>
